<?xml version="1.0" encoding="UTF-8" standalone="no"?>
<!-- Created with Inkscape (http://www.inkscape.org/) -->

<svg
   width="21.2672mm"
   height="21.2672mm"
   viewBox="0 0 21.267201 21.267201"
   version="1.1"
   id="svg5"
   inkscape:version="1.2.1 (9c6d41e410, 2022-07-14)"
   sodipodi:docname="close.svg"
   xmlns:inkscape="http://www.inkscape.org/namespaces/inkscape"
   xmlns:sodipodi="http://sodipodi.sourceforge.net/DTD/sodipodi-0.dtd"
   xmlns="http://www.w3.org/2000/svg"
   xmlns:svg="http://www.w3.org/2000/svg">
  <sodipodi:namedview
     id="namedview7"
     pagecolor="#ffffff"
     bordercolor="#999999"
     borderopacity="1"
     inkscape:pageshadow="0"
     inkscape:pageopacity="0"
     inkscape:pagecheckerboard="0"
     inkscape:document-units="mm"
     showgrid="false"
     inkscape:zoom="4"
     inkscape:cx="37"
     inkscape:cy="51.75"
     inkscape:window-width="1920"
     inkscape:window-height="1034"
     inkscape:window-x="0"
     inkscape:window-y="22"
     inkscape:window-maximized="1"
     inkscape:current-layer="layer1"
     inkscape:showpageshadow="2"
     inkscape:deskcolor="#d1d1d1" />
  <defs
     id="defs2" />
  <g
     inkscape:label="Layer 1"
     inkscape:groupmode="layer"
     id="layer1"
     transform="translate(-69.405639,-202.34927)">
    <g
       id="g83194"
       style="fill:#ffffff">
      <path
         id="rect984880"
         style="font-variation-settings:normal;vector-effect:none;fill:#ffffff;fill-opacity:1;stroke:none;stroke-width:0.545916;stroke-linecap:butt;stroke-linejoin:miter;stroke-miterlimit:4;stroke-dasharray:none;stroke-dashoffset:0;stroke-opacity:1;paint-order:markers stroke fill;stop-color:#000000"
         d="m 69.759111,221.56157 18.858822,-18.85882 c 0.471309,-0.47131 1.230141,-0.47131 1.701435,-1e-5 0.471293,0.47129 0.4713,1.23012 -9e-6,1.70143 l -18.858822,18.85882 c -0.471287,0.47129 -1.230141,0.47131 -1.701435,1e-5 -0.471293,-0.47129 -0.471279,-1.23014 9e-6,-1.70143 z" />
      <path
         id="path83190"
         style="font-variation-settings:normal;vector-effect:none;fill:#ffffff;fill-opacity:1;stroke:none;stroke-width:0.545916;stroke-linecap:butt;stroke-linejoin:miter;stroke-miterlimit:4;stroke-dasharray:none;stroke-dashoffset:0;stroke-opacity:1;paint-order:markers stroke fill;stop-color:#000000"
         d="M 90.319367,221.56157 71.460545,202.70275 c -0.471309,-0.47131 -1.230141,-0.47131 -1.701435,-1e-5 -0.471293,0.47129 -0.4713,1.23012 9e-6,1.70143 l 18.858822,18.85882 c 0.471287,0.47129 1.230141,0.47131 1.701435,1e-5 0.471293,-0.47129 0.471279,-1.23014 -9e-6,-1.70143 z" />
    </g>
  </g>
</svg>
