<?xml version="1.0" encoding="UTF-8" standalone="no"?>
<!-- Created with Inkscape (http://www.inkscape.org/) -->

<svg
   width="1597.7076mm"
   height="10.875293mm"
   viewBox="0 0 1597.7077 10.875292"
   version="1.1"
   id="svg230593"
   inkscape:version="1.2.1 (9c6d41e410, 2022-07-14)"
   sodipodi:docname="cut-down.svg"
   preserveAspectRatio="none"
   xml:space="preserve"
   xmlns:inkscape="http://www.inkscape.org/namespaces/inkscape"
   xmlns:sodipodi="http://sodipodi.sourceforge.net/DTD/sodipodi-0.dtd"
   xmlns="http://www.w3.org/2000/svg"
   xmlns:svg="http://www.w3.org/2000/svg"><sodipodi:namedview
     id="namedview230595"
     pagecolor="#ffffff"
     bordercolor="#000000"
     borderopacity="0.25"
     inkscape:showpageshadow="2"
     inkscape:pageopacity="0.0"
     inkscape:pagecheckerboard="0"
     inkscape:deskcolor="#d1d1d1"
     inkscape:document-units="mm"
     showgrid="false"
     inkscape:zoom="1.4142136"
     inkscape:cx="144.95689"
     inkscape:cy="-9.1923882"
     inkscape:window-width="1920"
     inkscape:window-height="1034"
     inkscape:window-x="0"
     inkscape:window-y="22"
     inkscape:window-maximized="1"
     inkscape:current-layer="layer1"
     shape-rendering="crispEdges"
     showguides="true" /><defs
     id="defs230590"><inkscape:path-effect
       effect="tiling"
       id="path-effect13883"
       is_visible="true"
       lpeversion="1"
       unit="px"
       seed="1;1"
       lpesatellites=""
       num_rows="1"
       num_cols="80"
       gapx="0"
       gapy="0"
       offset="0"
       offset_type="false"
       scale="0"
       rotate="0"
       mirrorrowsx="false"
       mirrorrowsy="false"
       mirrorcolsx="false"
       mirrorcolsy="false"
       mirrortrans="false"
       shrink_interp="false"
       split_items="false"
       link_styles="false"
       interpolate_scalex="false"
       interpolate_scaley="true"
       interpolate_rotatex="false"
       interpolate_rotatey="true"
       random_scale="false"
       random_rotate="false"
       random_gap_y="false"
       random_gap_x="false"
       transformorigin="" /></defs><g
     inkscape:label="Layer 1"
     inkscape:groupmode="layer"
     id="layer1"
     transform="translate(150.55441,-7.1911564)"><path
       id="path13868"
       style="font-variation-settings:normal;opacity:1;vector-effect:none;fill:#1a1a1a;fill-opacity:1;stroke:none;stroke-width:0.313933;stroke-linecap:square;stroke-linejoin:miter;stroke-miterlimit:4;stroke-dasharray:none;stroke-dashoffset:0;stroke-opacity:1;-inkscape-stroke:none;paint-order:markers stroke fill;stop-color:#000000;stop-opacity:1"
       d="m -155.6104,15.980789 -5.05603,-4.26434 V 1.9428721 H 1457.2658 v 9.7735769 l -5.0576,4.26434 -5.055,-4.26434 -5.057,4.26434 -5.055,-4.26434 -5.0566,4.26434 -5.056,-4.26434 -5.056,4.26434 -5.056,-4.26434 -5.056,4.26434 -5.0555,-4.26434 -5.0571,4.26434 -5.055,-4.26434 -5.057,4.26434 -5.0555,-4.26434 -5.0561,4.26434 -5.056,-4.26434 -5.056,4.26434 -5.056,-4.26434 -5.0566,4.26434 -5.055,-4.26434 -5.057,4.26434 -5.055,-4.26434 -5.0571,4.26434 -5.0555,-4.26434 -5.056,4.26434 -5.056,-4.26434 -5.056,4.26434 -5.0561,-4.26434 -5.0565,4.26434 -5.056,-4.26434 -5.056,4.26434 -5.0555,-4.26434 -5.0571,4.26434 -5.055,-4.26434 -5.056,4.26434 -5.056,-4.26434 -5.0561,4.26434 -5.0565,-4.26434 -5.056,4.26434 -5.056,-4.26434 -5.0561,4.26434 -5.0555,-4.26434 -5.057,4.26434 -5.055,-4.26434 -5.0571,4.26434 -5.055,-4.26434 -5.0565,4.26434 -5.056,-4.26434 -5.056,4.26434 -5.0561,-4.26434 -5.0565,4.26434 -5.055,-4.26434 -5.057,4.26434 -5.055,-4.26434 -5.0571,4.26434 -5.0555,-4.26434 -5.056,4.26434 -5.056,-4.26434 -5.0561,4.26434 -5.0565,-4.26434 -5.056,4.26434 -5.055,-4.26434 -5.0571,4.26434 -5.055,-4.26434 -5.0575,4.26434 -5.055,-4.26434 -5.056,4.26434 -5.0561,-4.26434 -5.0565,4.26434 -5.056,-4.26434 -5.056,4.26434 -5.055,-4.26434 -5.0571,4.26434 -5.0555,-4.26434 -5.0571,4.26434 -5.0549,-4.26434 -5.0561,4.26434 -5.056,-4.26434 -5.0565,4.26434 -5.056,-4.26434 -5.0561,4.26434 -5.055,-4.26434 -5.0575,4.26434 -5.055,-4.26434 -5.0571,4.26434 -5.055,-4.26434 -5.056,4.26434 -5.0565,-4.26434 -5.056,4.26434 -5.0561,-4.26434 -5.05596,4.26434 -5.0555,-4.26434 -5.05706,4.26434 -5.05499,-4.26434 -5.05705,4.26434 -5.05499,-4.26434 -5.05654,4.26434 -5.05602,-4.26434 -5.05602,4.26434 -5.05603,-4.26434 -5.05654,4.26434 -5.05498,-4.26434 -5.05706,4.26434 -5.05499,-4.26434 -5.05705,4.26434 -5.05551,-4.26434 -5.05602,4.26434 -5.05602,-4.26434 -5.05603,4.26434 -5.05602,-4.26434 -5.05654,4.26434 -5.05499,-4.26434 -5.05705,4.26434 -5.05499,-4.26434 -5.05757,4.26434 -5.05499,-4.26434 -5.05602,4.26434 -5.05603,-4.26434 -5.05602,4.26434 -5.05654,-4.26434 -5.05602,4.26434 -5.05602,-4.26434 -5.05602,4.26434 -5.05551,-4.26434 -5.05705,4.26434 -5.05499,-4.26434 -5.05602,4.26434 -5.05603,-4.26434 -5.05654,4.26434 -5.05602,-4.26434 -5.05602,4.26434 -5.05602,-4.26434 -5.05654,4.26434 -5.05499,-4.26434 -5.05706,4.26434 -5.05498,-4.26434 -5.05706,4.26434 -5.0555,-4.26434 -5.05603,4.26434 -5.05602,-4.26434 -5.05602,4.26434 -5.05654,-4.26434 -5.05602,4.26434 -5.05499,-4.26434 -5.05706,4.26434 -5.05498,-4.26434 -5.05758,4.26434 -5.05499,-4.26434 -5.05602,4.26434 -5.05602,-4.26434 -5.05602,4.26434 -5.05654,-4.26434 -5.05602,4.26434 -5.05499,-4.26434 -5.05706,4.26434 -5.0555,-4.26434 -5.05706,4.26434 -5.05499,-4.26434 -5.05602,4.26434 -5.05602,-4.26434 -5.05757,4.26434 -5.05499,-4.26434 -5.05706,4.26434 -5.05499,-4.26434 -5.05654,4.26434 -5.05602,-4.26434 -5.05602,4.26434 -5.05602,-4.26434 -5.05602,4.26434 -5.05551,-4.26434 -5.05706,4.26434 -5.05498,-4.26434 -5.05706,4.26434 -5.05551,-4.26434 -5.05602,4.26434 -5.05602,-4.26434 -5.05602,4.26434 -5.05602,-4.26434 -5.05654,4.26434 -5.05499,-4.26434 -5.05706,4.26434 -5.05499,-4.26434 -5.05757,4.26434 -5.05499,-4.26434 -5.05602,4.26434 -5.05602,-4.26434 -5.05602,4.26434 -5.05654,-4.26434 -5.05602,4.26434 -5.05603,-4.26434 -5.05602,4.26434 -5.05499,-4.26434 -5.05757,4.26434 -5.05499,-4.26434 -5.05602,4.26434 -5.05602,-4.26434 -5.05654,4.26434 -5.05602,-4.26434 -5.05603,4.26434 -5.05602,-4.26434 -5.05602,4.26434 -5.0555,-4.26434 -5.05706,4.26434 -5.05499,-4.26434 -5.05705,4.26434 -5.05551,-4.26434 -5.05602,4.26434 -5.05602,-4.26434 -5.05603,4.26434 -5.05602,-4.26434 -5.05654,4.26434 -5.05499,-4.26434 -5.05705,4.26434 -5.05499,-4.26434 -5.05706,4.26434 -5.0555,-4.26434 -5.05602,4.26434 -5.05603,-4.26434 -5.05602,4.26434 -5.05654,-4.26434 -5.05602,4.26434 -5.05499,-4.26434 -5.05705,4.26434 -5.05499,-4.26434 -5.05757,4.26434 -5.05499,-4.26434 -5.05602,4.26434 -5.05603,-4.26434 -5.05654,4.26434 -5.05602,-4.26434 -5.05602,4.26434 -5.05499,-4.26434 -5.05705,4.26434 -5.05551,-4.26434 -5.05706,4.26434 -5.05498,-4.26434 -5.05603,4.26434 -5.05654,-4.26434 -5.05602,4.26434 -5.05602,-4.26434 -5.05602,4.26434 -5.05499,-4.26434 -5.05757,4.26434 -5.05499,-4.26434 -5.05706,4.26434 -5.05499,-4.26434 -5.05602,4.26434 -5.05654,-4.26434 -5.05602,4.26434 -5.05602,-4.26434 -5.05602,4.26434 -5.05551,-4.26434 -5.05705,4.26434 -5.05499,-4.26434 -5.05706,4.26434 -5.05499,-4.26434 -5.05654,4.26434 -5.05602,-4.26434 -5.05602,4.26434 -5.05602,-4.26434 -5.05654,4.26434 -5.05499,-4.26434 -5.05706,4.26434 -5.05498,-4.26434 -5.05706,4.26434 -5.05551,-4.26434 -5.05602,4.26434 -5.05602,-4.26434 -5.056018,4.26434 -5.056539,-4.26434 -5.056022,4.26434 -5.054989,-4.26434 -5.057056,4.26434 -5.054988,-4.26434 -5.057573,4.26434 -5.054988,-4.26434 -5.056023,4.26434 -5.056022,-4.26434 -5.056539,4.26434 -5.056022,-4.26434 -5.056022,4.26434 -5.056022,-4.26434 -5.056022,4.26434 -5.055505,-4.26434 -5.057056,4.26434 -5.054989,-4.26434 -5.0560215,4.26434 -5.0560221,-4.26434 -5.0565389,4.26434 -5.0560222,-4.26434 -5.0560223,4.26434 -5.056022,-4.26434 -5.056539,4.26434 -5.054989,-4.26434 -5.057055,4.26434 -5.054989,-4.26434 -5.057056,4.26434 -5.055505,-4.26434 -5.056022,4.26434 -5.056022,-4.26434 -5.056023,4.26434 -5.056538,-4.26434 -5.056023,4.26434 -5.054988,-4.26434 -5.057056,4.26434 -5.054988,-4.26434 -5.057573,4.26434 -5.054988,-4.26434 -5.056022,4.26434 -5.05603,-4.26434 -5.05602,4.26434 -5.05654,-4.26434 -5.05602,4.26434 -5.05499,-4.26434 -5.05705,4.26434 -5.05551,-4.26434 -5.05705,4.26434 -5.05499,-4.26434 z"
       sodipodi:nodetypes="cccccccccccccccccccccccccccccccccccccccccccccccccccccccccccccccccccccccccccccccccccccccccccccccccccccccccccccccccccccccccccccccccccccccccccccccccccccccccccccccccccccccccccccccccccccccccccccccccccccccccccccccccccccccccccccccccccccccccccccccccccccccccccccccccccccccccccccccccccccccccccccccccccccccccccccccccccccccccccccccccccc" /></g></svg>
