<?xml version="1.0" encoding="UTF-8" standalone="no"?>
<!-- Created with Inkscape (http://www.inkscape.org/) -->

<svg
   width="1597.7076mm"
   height="10.875293mm"
   viewBox="0 0 1597.7077 10.875292"
   version="1.1"
   id="svg230593"
   inkscape:version="1.2.1 (9c6d41e410, 2022-07-14)"
   sodipodi:docname="cut.svg"
   preserveAspectRatio="none"
   xml:space="preserve"
   xmlns:inkscape="http://www.inkscape.org/namespaces/inkscape"
   xmlns:sodipodi="http://sodipodi.sourceforge.net/DTD/sodipodi-0.dtd"
   xmlns="http://www.w3.org/2000/svg"
   xmlns:svg="http://www.w3.org/2000/svg"><sodipodi:namedview
     id="namedview230595"
     pagecolor="#ffffff"
     bordercolor="#000000"
     borderopacity="0.25"
     inkscape:showpageshadow="2"
     inkscape:pageopacity="0.0"
     inkscape:pagecheckerboard="0"
     inkscape:deskcolor="#d1d1d1"
     inkscape:document-units="mm"
     showgrid="false"
     inkscape:zoom="2"
     inkscape:cx="5906"
     inkscape:cy="54.5"
     inkscape:window-width="1920"
     inkscape:window-height="1034"
     inkscape:window-x="0"
     inkscape:window-y="22"
     inkscape:window-maximized="1"
     inkscape:current-layer="layer1"
     shape-rendering="crispEdges"
     showguides="true" /><defs
     id="defs230590"><inkscape:path-effect
       effect="tiling"
       id="path-effect13883"
       is_visible="true"
       lpeversion="1"
       unit="px"
       seed="1;1"
       lpesatellites=""
       num_rows="1"
       num_cols="80"
       gapx="0"
       gapy="0"
       offset="0"
       offset_type="false"
       scale="0"
       rotate="0"
       mirrorrowsx="false"
       mirrorrowsy="false"
       mirrorcolsx="false"
       mirrorcolsy="false"
       mirrortrans="false"
       shrink_interp="false"
       split_items="false"
       link_styles="false"
       interpolate_scalex="false"
       interpolate_scaley="true"
       interpolate_rotatex="false"
       interpolate_rotatey="true"
       random_scale="false"
       random_rotate="false"
       random_gap_y="false"
       random_gap_x="false"
       transformorigin="" /></defs><g
     inkscape:label="Layer 1"
     inkscape:groupmode="layer"
     id="layer1"
     transform="translate(150.55441,-7.1911564)"><path
       id="path13868"
       style="font-variation-settings:normal;opacity:1;vector-effect:none;fill:#1a1a1a;fill-opacity:1;stroke:none;stroke-width:0.313933;stroke-linecap:square;stroke-linejoin:miter;stroke-miterlimit:4;stroke-dasharray:none;stroke-dashoffset:0;stroke-opacity:1;-inkscape-stroke:none;paint-order:markers stroke fill;stop-color:#000000;stop-opacity:1"
       d="m -155.61043,9.2768177 -5.05603,4.2643393 v 9.773577 H 1457.2658 v -9.773577 l -5.0576,-4.2643393 -5.055,4.2643393 -5.057,-4.2643393 -5.055,4.2643393 -5.0566,-4.2643393 -5.056,4.2643393 -5.056,-4.2643393 -5.056,4.2643393 -5.056,-4.2643393 -5.0555,4.2643393 -5.0571,-4.2643393 -5.055,4.2643393 -5.057,-4.2643393 -5.0555,4.2643393 -5.0561,-4.2643393 -5.056,4.2643393 -5.056,-4.2643393 -5.056,4.2643393 -5.0566,-4.2643393 -5.055,4.2643393 -5.057,-4.2643393 -5.055,4.2643393 -5.0571,-4.2643393 -5.0555,4.2643393 -5.056,-4.2643393 -5.056,4.2643393 -5.056,-4.2643393 -5.0561,4.2643393 -5.0565,-4.2643393 -5.056,4.2643393 -5.056,-4.2643393 -5.0555,4.2643393 -5.0571,-4.2643393 -5.055,4.2643393 -5.056,-4.2643393 -5.056,4.2643393 -5.0561,-4.2643393 -5.0565,4.2643393 -5.056,-4.2643393 -5.056,4.2643393 -5.0561,-4.2643393 -5.0555,4.2643393 -5.057,-4.2643393 -5.055,4.2643393 -5.0571,-4.2643393 -5.055,4.2643393 -5.0565,-4.2643393 -5.056,4.2643393 -5.056,-4.2643393 -5.0561,4.2643393 -5.0565,-4.2643393 -5.055,4.2643393 -5.057,-4.2643393 -5.055,4.2643393 -5.0571,-4.2643393 -5.0555,4.2643393 -5.056,-4.2643393 -5.056,4.2643393 -5.0561,-4.2643393 -5.0565,4.2643393 -5.056,-4.2643393 -5.055,4.2643393 -5.0571,-4.2643393 -5.055,4.2643393 -5.0575,-4.2643393 -5.055,4.2643393 -5.056,-4.2643393 -5.0561,4.2643393 -5.0565,-4.2643393 -5.056,4.2643393 -5.056,-4.2643393 -5.055,4.2643393 -5.0571,-4.2643393 -5.0555,4.2643393 -5.0571,-4.2643393 -5.0549,4.2643393 -5.0561,-4.2643393 -5.056,4.2643393 -5.0565,-4.2643393 -5.056,4.2643393 -5.0561,-4.2643393 -5.055,4.2643393 -5.0575,-4.2643393 -5.055,4.2643393 -5.0571,-4.2643393 -5.055,4.2643393 -5.056,-4.2643393 -5.0565,4.2643393 -5.056,-4.2643393 -5.0561,4.2643393 -5.05599,-4.2643393 -5.0555,4.2643393 -5.05706,-4.2643393 -5.05499,4.2643393 -5.05705,-4.2643393 -5.05499,4.2643393 -5.05654,-4.2643393 -5.05602,4.2643393 -5.05602,-4.2643393 -5.05603,4.2643393 -5.05654,-4.2643393 -5.05498,4.2643393 -5.05706,-4.2643393 -5.05499,4.2643393 -5.05705,-4.2643393 -5.05551,4.2643393 -5.05602,-4.2643393 -5.05602,4.2643393 -5.05603,-4.2643393 -5.05602,4.2643393 -5.05654,-4.2643393 -5.05499,4.2643393 -5.05705,-4.2643393 -5.05499,4.2643393 -5.05757,-4.2643393 -5.05499,4.2643393 -5.05602,-4.2643393 -5.05603,4.2643393 -5.05602,-4.2643393 -5.05654,4.2643393 -5.05602,-4.2643393 -5.05602,4.2643393 -5.05602,-4.2643393 -5.05551,4.2643393 -5.05705,-4.2643393 -5.05499,4.2643393 -5.05602,-4.2643393 -5.05603,4.2643393 -5.05654,-4.2643393 -5.05602,4.2643393 -5.05602,-4.2643393 -5.05602,4.2643393 -5.05654,-4.2643393 -5.05499,4.2643393 -5.05706,-4.2643393 -5.05498,4.2643393 -5.05706,-4.2643393 -5.0555,4.2643393 -5.05603,-4.2643393 -5.05602,4.2643393 -5.05602,-4.2643393 -5.05654,4.2643393 -5.05602,-4.2643393 -5.05499,4.2643393 -5.05706,-4.2643393 -5.05498,4.2643393 -5.05758,-4.2643393 -5.05499,4.2643393 -5.05602,-4.2643393 -5.05602,4.2643393 -5.05602,-4.2643393 -5.05654,4.2643393 -5.05602,-4.2643393 -5.05499,4.2643393 -5.05706,-4.2643393 -5.0555,4.2643393 -5.05706,-4.2643393 -5.05499,4.2643393 -5.05602,-4.2643393 -5.05602,4.2643393 -5.05757,-4.2643393 -5.05499,4.2643393 -5.05706,-4.2643393 -5.05499,4.2643393 -5.05654,-4.2643393 -5.05602,4.2643393 -5.05602,-4.2643393 -5.05602,4.2643393 -5.05602,-4.2643393 -5.05551,4.2643393 -5.05706,-4.2643393 -5.05498,4.2643393 -5.05706,-4.2643393 -5.05551,4.2643393 -5.05602,-4.2643393 -5.05602,4.2643393 -5.05602,-4.2643393 -5.05602,4.2643393 -5.05654,-4.2643393 -5.05499,4.2643393 -5.05706,-4.2643393 -5.05499,4.2643393 -5.05757,-4.2643393 -5.05499,4.2643393 -5.05602,-4.2643393 -5.05602,4.2643393 -5.05602,-4.2643393 -5.05654,4.2643393 -5.05602,-4.2643393 -5.05603,4.2643393 -5.05602,-4.2643393 -5.05499,4.2643393 -5.05757,-4.2643393 -5.05499,4.2643393 -5.05602,-4.2643393 -5.05602,4.2643393 -5.05654,-4.2643393 -5.05602,4.2643393 -5.05603,-4.2643393 -5.05602,4.2643393 -5.05602,-4.2643393 -5.0555,4.2643393 -5.05706,-4.2643393 -5.05499,4.2643393 -5.05705,-4.2643393 -5.05551,4.2643393 -5.05602,-4.2643393 -5.05602,4.2643393 -5.05603,-4.2643393 -5.05602,4.2643393 -5.05654,-4.2643393 -5.05499,4.2643393 -5.05705,-4.2643393 -5.05499,4.2643393 -5.05706,-4.2643393 -5.0555,4.2643393 -5.05602,-4.2643393 -5.05603,4.2643393 -5.05602,-4.2643393 -5.05654,4.2643393 -5.05602,-4.2643393 -5.05499,4.2643393 -5.05705,-4.2643393 -5.05499,4.2643393 -5.05757,-4.2643393 -5.05499,4.2643393 -5.05602,-4.2643393 -5.05603,4.2643393 -5.05654,-4.2643393 -5.05602,4.2643393 -5.05602,-4.2643393 -5.05499,4.2643393 -5.05705,-4.2643393 -5.05551,4.2643393 -5.05706,-4.2643393 -5.05498,4.2643393 -5.05603,-4.2643393 -5.05654,4.2643393 -5.05602,-4.2643393 -5.05602,4.2643393 -5.05602,-4.2643393 -5.05499,4.2643393 -5.05757,-4.2643393 -5.05499,4.2643393 -5.05706,-4.2643393 -5.05499,4.2643393 -5.05602,-4.2643393 -5.05654,4.2643393 -5.05602,-4.2643393 -5.05602,4.2643393 -5.05602,-4.2643393 -5.05551,4.2643393 -5.05705,-4.2643393 -5.05499,4.2643393 -5.05706,-4.2643393 -5.05499,4.2643393 -5.05654,-4.2643393 -5.05602,4.2643393 -5.05602,-4.2643393 -5.05602,4.2643393 -5.05654,-4.2643393 -5.05499,4.2643393 -5.05706,-4.2643393 -5.05498,4.2643393 -5.05706,-4.2643393 -5.05551,4.2643393 -5.05602,-4.2643393 -5.05602,4.2643393 L 97.191189,9.2768177 92.13465,13.541157 87.078628,9.2768177 82.023639,13.541157 76.966583,9.2768177 71.911595,13.541157 66.854022,9.2768177 61.799034,13.541157 56.743011,9.2768177 51.686989,13.541157 46.63045,9.2768177 41.574428,13.541157 36.518406,9.2768177 31.462384,13.541157 26.406362,9.2768177 21.350857,13.541157 16.293801,9.2768177 11.238812,13.541157 6.1827901,9.2768177 1.126768,13.541157 -3.9297709,9.2768177 -8.9857931,13.541157 -14.041815,9.2768177 l -5.056022,4.2643393 -5.056539,-4.2643393 -5.054989,4.2643393 -5.057055,-4.2643393 -5.054989,4.2643393 -5.057056,-4.2643393 -5.055505,4.2643393 -5.056022,-4.2643393 -5.056022,4.2643393 -5.056023,-4.2643393 -5.056538,4.2643393 -5.056023,-4.2643393 -5.054988,4.2643393 -5.057056,-4.2643393 -5.054988,4.2643393 -5.057573,-4.2643393 -5.054988,4.2643393 -5.056019,-4.2643393 -5.05603,4.2643393 -5.05602,-4.2643393 -5.05654,4.2643393 -5.05602,-4.2643393 -5.05499,4.2643393 -5.05705,-4.2643393 -5.05551,4.2643393 -5.05705,-4.2643393 -5.05499,4.2643393 z"
       sodipodi:nodetypes="cccccccccccccccccccccccccccccccccccccccccccccccccccccccccccccccccccccccccccccccccccccccccccccccccccccccccccccccccccccccccccccccccccccccccccccccccccccccccccccccccccccccccccccccccccccccccccccccccccccccccccccccccccccccccccccccccccccccccccccccccccccccccccccccccccccccccccccccccccccccccccccccccccccccccccccccccccccccccccccccccccc" /></g></svg>
