<?xml version="1.0" encoding="UTF-8" standalone="no"?>
<!-- Created with Inkscape (http://www.inkscape.org/) -->

<svg
   width="7.5804801mm"
   height="8.8714752mm"
   viewBox="0 0 7.5804801 8.8714752"
   version="1.1"
   id="svg817658"
   inkscape:version="1.2.1 (9c6d41e410, 2022-07-14)"
   sodipodi:docname="patent-mark.svg"
   xmlns:inkscape="http://www.inkscape.org/namespaces/inkscape"
   xmlns:sodipodi="http://sodipodi.sourceforge.net/DTD/sodipodi-0.dtd"
   xmlns="http://www.w3.org/2000/svg"
   xmlns:svg="http://www.w3.org/2000/svg">
  <sodipodi:namedview
     id="namedview817660"
     pagecolor="#ffffff"
     bordercolor="#000000"
     borderopacity="0.25"
     inkscape:showpageshadow="2"
     inkscape:pageopacity="0.0"
     inkscape:pagecheckerboard="0"
     inkscape:deskcolor="#d1d1d1"
     inkscape:document-units="mm"
     showgrid="false"
     inkscape:zoom="12.201122"
     inkscape:cx="28.931765"
     inkscape:cy="25.489458"
     inkscape:window-width="1920"
     inkscape:window-height="1034"
     inkscape:window-x="0"
     inkscape:window-y="22"
     inkscape:window-maximized="1"
     inkscape:current-layer="layer1" />
  <defs
     id="defs817655" />
  <g
     inkscape:label="Layer 1"
     inkscape:groupmode="layer"
     id="layer1"
     transform="translate(-110.0135,-123.94043)">
    <path
       id="rect817371-7"
       style="fill:#1a1a1a;fill-opacity:1;stroke-width:0.650879;paint-order:markers stroke fill;stop-color:#000000;font-variation-settings:normal;opacity:1;vector-effect:none;stroke-linecap:square;stroke-linejoin:miter;stroke-miterlimit:4;stroke-dasharray:none;stroke-dashoffset:0;stroke-opacity:1;-inkscape-stroke:none;stop-opacity:1;stroke:none"
       d="m 113.21899,123.94062 c -0.0163,1e-4 -0.0333,0.002 -0.0512,0.005 -0.28602,0.0523 -0.2194,0.43188 -0.49093,0.53588 -0.27153,0.10405 -0.47568,-0.22293 -0.72347,-0.0708 -0.2478,0.15213 -0.0484,0.4819 -0.26406,0.67697 -0.21563,0.19507 -0.52412,-0.036 -0.70022,0.19533 -0.17571,0.23139 0.12957,0.46677 -10e-4,0.72657 -0.13059,0.2598 -0.5018,0.15574 -0.5824,0.43512 -0.0806,0.27937 0.28939,0.38854 0.26149,0.67799 -0.0279,0.28941 -0.41224,0.32635 -0.38654,0.61599 0.0257,0.28963 0.41036,0.25797 0.48886,0.53795 0.0785,0.27997 -0.26608,0.45339 -0.13746,0.71417 0.12862,0.26079 0.47575,0.0923 0.65009,0.32504 0.17433,0.2327 -0.085,0.51849 0.12919,0.7152 0.21414,0.19672 0.47735,-0.0853 0.72398,0.0687 0.24664,0.15399 0.10806,0.51406 0.37879,0.62012 0.27073,0.10606 0.41408,-0.2519 0.6997,-0.1974 0.28561,0.0545 0.28697,0.44131 0.57774,0.44131 0.29077,0.001 0.29483,-0.38488 0.58085,-0.43718 0.28602,-0.0523 0.42662,0.3071 0.69815,0.20309 0.27153,-0.10401 0.13615,-0.46541 0.38395,-0.61753 0.24779,-0.1522 0.50837,0.13202 0.72399,-0.063 0.21565,-0.19507 -0.0412,-0.48282 0.13487,-0.71417 0.17611,-0.23133 0.52209,-0.0606 0.65268,-0.32039 0.13059,-0.2598 -0.21289,-0.43531 -0.13229,-0.71469 0.0806,-0.27937 0.46509,-0.24492 0.49299,-0.53433 0.0279,-0.28945 -0.35567,-0.32944 -0.38137,-0.61908 -0.0257,-0.2896 0.34463,-0.39596 0.26613,-0.67593 -0.0785,-0.27998 -0.45067,-0.17847 -0.57929,-0.43925 -0.12873,-0.26078 0.17848,-0.49438 0.004,-0.72709 -0.17435,-0.23268 -0.48453,-0.004 -0.69866,-0.2005 -0.21416,-0.19671 -0.0123,-0.52504 -0.2589,-0.67903 h -5.2e-4 c -0.24664,-0.15399 -0.45326,0.17169 -0.72399,0.0656 -0.27074,-0.10606 -0.20066,-0.48552 -0.48627,-0.54002 -0.28562,-0.0545 -0.36088,0.32298 -0.65164,0.32298 -0.27261,-0.001 -0.35272,-0.33434 -0.59738,-0.3328 z m 0.58498,0.87488 a 2.6367481,2.6367481 0 0 1 2.63653,2.63653 2.6367481,2.6367481 0 0 1 -2.63653,2.63705 2.6367481,2.6367481 0 0 1 -2.63705,-2.63705 2.6367481,2.6367481 0 0 1 2.63705,-2.63653 z m 0,0.5178 a 2.1188004,2.1188004 0 0 0 -2.11925,2.11873 2.1188004,2.1188004 0 0 0 2.11925,2.11874 2.1188004,2.1188004 0 0 0 2.11873,-2.11874 2.1188004,2.1188004 0 0 0 -2.11873,-2.11873 z m -0.80461,0.9989 h 0.95654 c 0.18902,0 0.35302,0.0297 0.49195,0.0889 0.14121,0.0569 0.25071,0.14326 0.32815,0.25941 0.0797,0.11616 0.11937,0.26315 0.11937,0.4408 0,0.17538 -0.0396,0.32021 -0.11937,0.43409 -0.0774,0.11387 -0.18694,0.19803 -0.32815,0.25269 -0.13893,0.0547 -0.30293,0.0822 -0.49195,0.0822 h -0.40618 v 0.74827 c 0,0.0228 -0.009,0.0433 -0.0274,0.0615 -0.0159,0.0159 -0.0364,0.0238 -0.0615,0.0238 h -0.46147 c -0.025,0 -0.0455,-0.008 -0.0615,-0.0238 -0.0159,-0.0182 -0.0238,-0.0387 -0.0238,-0.0615 v -2.22105 c 0,-0.0251 0.008,-0.0456 0.0238,-0.0615 0.0159,-0.0159 0.0364,-0.0238 0.0615,-0.0238 z m 0.54002,0.47491 v 0.61133 h 0.39946 c 0.0979,0 0.17561,-0.0248 0.23255,-0.0749 0.0592,-0.0501 0.0889,-0.12643 0.0889,-0.22892 0,-0.0865 -0.0253,-0.15938 -0.0754,-0.2186 -0.0501,-0.0592 -0.1321,-0.0889 -0.24598,-0.0889 z m 3.05821,3.27474 c -0.0355,0.0881 -0.0915,0.17727 -0.16691,0.24546 -0.11539,0.10443 -0.27499,0.15991 -0.40049,0.16691 -0.12551,0.007 -0.21739,-0.0167 -0.28319,-0.0315 -0.0568,-0.0134 -0.0761,-0.0176 -0.0889,-0.0207 -0.003,0.0142 -0.01,0.0376 -0.0227,0.0889 -0.0166,0.0653 -0.0369,0.1583 -0.0997,0.26717 -0.0628,0.10887 -0.18542,0.22552 -0.33073,0.28112 -0.10774,0.0412 -0.2284,0.0488 -0.33227,0.0341 l 0.98081,1.6986 0.51728,-1.11362 1.22319,0.10903 z m -5.59242,0.007 -0.99167,1.71824 1.22318,-0.10903 0.51728,1.11362 0.98857,-1.71204 c -0.11087,0.0205 -0.2456,0.0155 -0.36432,-0.031 -0.14488,-0.0567 -0.26614,-0.17488 -0.32814,-0.28422 -0.062,-0.10931 -0.0821,-0.20219 -0.0982,-0.26769 -0.0124,-0.0504 -0.0183,-0.0739 -0.0217,-0.0884 -0.0145,0.003 -0.0383,0.009 -0.0894,0.0196 -0.0659,0.0142 -0.15774,0.0375 -0.28319,0.0295 -0.12545,-0.008 -0.28487,-0.0648 -0.39946,-0.17002 -0.0668,-0.0614 -0.11787,-0.13964 -0.15296,-0.21859 z" />
  </g>
</svg>
