<?xml version="1.0" encoding="UTF-8" standalone="no"?>
<!-- Created with Inkscape (http://www.inkscape.org/) -->

<svg
   width="7.7913599mm"
   height="7.7913499mm"
   viewBox="0 0 7.7913599 7.7913499"
   version="1.1"
   id="svg176859"
   inkscape:version="1.2.1 (9c6d41e410, 2022-07-14)"
   sodipodi:docname="reddit.svg"
   xmlns:inkscape="http://www.inkscape.org/namespaces/inkscape"
   xmlns:sodipodi="http://sodipodi.sourceforge.net/DTD/sodipodi-0.dtd"
   xmlns="http://www.w3.org/2000/svg"
   xmlns:svg="http://www.w3.org/2000/svg">
  <sodipodi:namedview
     id="namedview176861"
     pagecolor="#ffffff"
     bordercolor="#000000"
     borderopacity="0.25"
     inkscape:showpageshadow="2"
     inkscape:pageopacity="0.0"
     inkscape:pagecheckerboard="0"
     inkscape:deskcolor="#d1d1d1"
     inkscape:document-units="mm"
     showgrid="false"
     inkscape:zoom="0.76257015"
     inkscape:cx="-321.28192"
     inkscape:cy="239.97792"
     inkscape:window-width="1920"
     inkscape:window-height="1034"
     inkscape:window-x="0"
     inkscape:window-y="22"
     inkscape:window-maximized="1"
     inkscape:current-layer="layer1" />
  <defs
     id="defs176856" />
  <g
     inkscape:label="Layer 1"
     inkscape:groupmode="layer"
     id="layer1"
     transform="translate(-123.4396,-84.92675)">
    <path
       fill="currentColor"
       d="m 128.20269,90.0043 q 0.0659,0.0659 0,0.13175 -0.26884,0.26884 -0.8674,0.26884 -0.59855,0 -0.86742,-0.26884 -0.0659,-0.0659 0,-0.13175 0.0252,-0.0305 0.0659,-0.0305 0.0406,0 0.0659,0.0305 0.21303,0.21305 0.7355,0.21305 0.52247,0 0.73553,-0.21305 0.0252,-0.0305 0.0659,-0.0305 0.0406,0 0.0659,0.0305 z m -1.33408,-0.79131 q 0,0.15716 -0.11685,0.27393 -0.11672,0.11684 -0.27391,0.11684 -0.15717,0 -0.27391,-0.11684 -0.11661,-0.11685 -0.11661,-0.27393 0,-0.16239 0.11415,-0.27644 0.11414,-0.11415 0.27646,-0.11415 0.16239,0 0.27644,0.11415 0.11415,0.11414 0.11415,0.27644 z m 1.71453,0 q 0,0.15716 -0.11673,0.27393 -0.11661,0.11684 -0.27392,0.11684 -0.15716,0 -0.27392,-0.11684 -0.11661,-0.11685 -0.11661,-0.27393 0,-0.16239 0.11415,-0.27644 0.11415,-0.11415 0.27643,-0.11415 0.16239,0 0.27646,0.11415 0.11415,0.11414 0.11415,0.27644 z m 1.09058,-0.52245 q 0,-0.21306 -0.1523,-0.36521 -0.15229,-0.15229 -0.37029,-0.15229 -0.21306,0 -0.37031,0.15717 -0.57317,-0.39567 -1.35435,-0.41595 l 0.27392,-1.2326 0.86738,0.1978 q 0.005,0.1624 0.11923,0.27393 0.11414,0.11157 0.27136,0.11157 0.16238,0 0.27646,-0.11415 0.11415,-0.11415 0.11415,-0.27644 0,-0.16239 -0.11415,-0.27646 -0.11415,-0.11415 -0.27646,-0.11415 -0.24348,0 -0.35,0.21812 l -0.95871,-0.21303 q -0.0861,-0.0252 -0.10652,0.0659 l -0.30435,1.35943 q -0.78117,0.0306 -1.34422,0.42101 -0.15229,-0.16239 -0.37537,-0.16239 -0.2181,0 -0.37027,0.1523 -0.1523,0.15228 -0.1523,0.36522 0,0.15229 0.0811,0.27899 0.0811,0.12687 0.21305,0.19276 -0.0252,0.12687 -0.0252,0.24347 0,0.61884 0.60871,1.05759 0.60871,0.43878 1.46595,0.43878 0.86233,0 1.47103,-0.43878 0.60868,-0.43875 0.60868,-1.05759 0,-0.12689 -0.0305,-0.24855 0.12689,-0.0659 0.20546,-0.19023 0.0787,-0.12427 0.0787,-0.27644 z m 1.55724,-2.30292 v 4.8696 q 0,0.60364 -0.42862,1.03225 -0.42863,0.42863 -1.03225,0.42863 h -4.8696 q -0.60364,0 -1.03226,-0.42863 -0.42863,-0.42861 -0.42863,-1.03225 v -4.8696 q 0,-0.60362 0.42863,-1.03225 0.42862,-0.42862 1.03226,-0.42862 h 4.8696 q 0.60362,0 1.03225,0.42862 0.42862,0.42863 0.42862,1.03225 z"
       id="path48409"
       style="fill:#ffffff;stroke-width:0.0050725" />
  </g>
</svg>
