<?xml version="1.0" encoding="UTF-8" standalone="no"?>
<!-- Created with Inkscape (http://www.inkscape.org/) -->

<svg
   width="21.716539mm"
   height="21.62912mm"
   viewBox="0 0 21.71654 21.62912"
   version="1.1"
   id="svg981636"
   inkscape:version="1.2.1 (9c6d41e410, 2022-07-14)"
   sodipodi:docname="safari.svg"
   xmlns:inkscape="http://www.inkscape.org/namespaces/inkscape"
   xmlns:sodipodi="http://sodipodi.sourceforge.net/DTD/sodipodi-0.dtd"
   xmlns:xlink="http://www.w3.org/1999/xlink"
   xmlns="http://www.w3.org/2000/svg"
   xmlns:svg="http://www.w3.org/2000/svg">
  <sodipodi:namedview
     id="namedview981638"
     pagecolor="#ffffff"
     bordercolor="#000000"
     borderopacity="0.25"
     inkscape:showpageshadow="2"
     inkscape:pageopacity="0.0"
     inkscape:pagecheckerboard="0"
     inkscape:deskcolor="#d1d1d1"
     inkscape:document-units="mm"
     showgrid="false"
     inkscape:zoom="1"
     inkscape:cx="-125"
     inkscape:cy="-94"
     inkscape:window-width="1920"
     inkscape:window-height="1034"
     inkscape:window-x="0"
     inkscape:window-y="22"
     inkscape:window-maximized="1"
     inkscape:current-layer="layer1" />
  <defs
     id="defs981633">
    <linearGradient
       id="a"
       x1="70.790001"
       x2="6.447"
       y1="12.39"
       y2="74.470001"
       gradientTransform="translate(-1.3,-0.004086)"
       gradientUnits="userSpaceOnUse">
      <stop
         stop-color="#fff44f"
         offset=".048"
         id="stop978338" />
      <stop
         stop-color="#ffe847"
         offset=".111"
         id="stop978340" />
      <stop
         stop-color="#ffc830"
         offset=".225"
         id="stop978342" />
      <stop
         stop-color="#ff980e"
         offset=".368"
         id="stop978344" />
      <stop
         stop-color="#ff8b16"
         offset=".401"
         id="stop978346" />
      <stop
         stop-color="#ff672a"
         offset=".462"
         id="stop978348" />
      <stop
         stop-color="#ff3647"
         offset=".534"
         id="stop978350" />
      <stop
         stop-color="#e31587"
         offset=".705"
         id="stop978352" />
    </linearGradient>
    <radialGradient
       id="b"
       cx="-7907"
       cy="-8515"
       r="80.800003"
       gradientTransform="translate(7974,8524)"
       gradientUnits="userSpaceOnUse">
      <stop
         stop-color="#ffbd4f"
         offset=".129"
         id="stop978355" />
      <stop
         stop-color="#ffac31"
         offset=".186"
         id="stop978357" />
      <stop
         stop-color="#ff9d17"
         offset=".247"
         id="stop978359" />
      <stop
         stop-color="#ff980e"
         offset=".283"
         id="stop978361" />
      <stop
         stop-color="#ff563b"
         offset=".403"
         id="stop978363" />
      <stop
         stop-color="#ff3750"
         offset=".467"
         id="stop978365" />
      <stop
         stop-color="#f5156c"
         offset=".71"
         id="stop978367" />
      <stop
         stop-color="#eb0878"
         offset=".782"
         id="stop978369" />
      <stop
         stop-color="#e50080"
         offset=".86"
         id="stop978371" />
    </radialGradient>
    <radialGradient
       id="c"
       cx="-7937"
       cy="-8482"
       r="80.800003"
       gradientTransform="translate(7974,8524)"
       gradientUnits="userSpaceOnUse">
      <stop
         stop-color="#960e18"
         offset=".3"
         id="stop978374" />
      <stop
         stop-color="#b11927"
         stop-opacity=".74"
         offset=".351"
         id="stop978376" />
      <stop
         stop-color="#db293d"
         stop-opacity=".343"
         offset=".435"
         id="stop978378" />
      <stop
         stop-color="#f5334b"
         stop-opacity=".094"
         offset=".497"
         id="stop978380" />
      <stop
         stop-color="#ff3750"
         stop-opacity="0"
         offset=".53"
         id="stop978382" />
    </radialGradient>
    <radialGradient
       id="d"
       cx="-7927"
       cy="-8533"
       r="58.529999"
       gradientTransform="translate(7974,8524)"
       gradientUnits="userSpaceOnUse">
      <stop
         stop-color="#fff44f"
         offset=".132"
         id="stop978385" />
      <stop
         stop-color="#ffdc3e"
         offset=".252"
         id="stop978387" />
      <stop
         stop-color="#ff9d12"
         offset=".506"
         id="stop978389" />
      <stop
         stop-color="#ff980e"
         offset=".526"
         id="stop978391" />
    </radialGradient>
    <radialGradient
       id="e"
       cx="-7946"
       cy="-8461"
       r="38.470001"
       gradientTransform="translate(7974,8524)"
       gradientUnits="userSpaceOnUse">
      <stop
         stop-color="#3a8ee6"
         offset=".353"
         id="stop978394" />
      <stop
         stop-color="#5c79f0"
         offset=".472"
         id="stop978396" />
      <stop
         stop-color="#9059ff"
         offset=".669"
         id="stop978398" />
      <stop
         stop-color="#c139e6"
         offset="1"
         id="stop978400" />
    </radialGradient>
    <radialGradient
       id="f"
       cx="-7936"
       cy="-8492"
       r="20.4"
       gradientTransform="matrix(0.972,-0.235,0.275,1.138,10090,7834)"
       gradientUnits="userSpaceOnUse">
      <stop
         stop-color="#9059ff"
         stop-opacity="0"
         offset=".206"
         id="stop978403" />
      <stop
         stop-color="#8c4ff3"
         stop-opacity=".064"
         offset=".278"
         id="stop978405" />
      <stop
         stop-color="#7716a8"
         stop-opacity=".45"
         offset=".747"
         id="stop978407" />
      <stop
         stop-color="#6e008b"
         stop-opacity=".6"
         offset=".975"
         id="stop978409" />
    </radialGradient>
    <radialGradient
       id="g"
       cx="-7938"
       cy="-8518"
       r="27.68"
       gradientTransform="translate(7974,8524)"
       gradientUnits="userSpaceOnUse">
      <stop
         stop-color="#ffe226"
         offset="0"
         id="stop978412" />
      <stop
         stop-color="#ffdb27"
         offset=".121"
         id="stop978414" />
      <stop
         stop-color="#ffc82a"
         offset=".295"
         id="stop978416" />
      <stop
         stop-color="#ffa930"
         offset=".502"
         id="stop978418" />
      <stop
         stop-color="#ff7e37"
         offset=".732"
         id="stop978420" />
      <stop
         stop-color="#ff7139"
         offset=".792"
         id="stop978422" />
    </radialGradient>
    <radialGradient
       id="h"
       cx="-7916"
       cy="-8536"
       r="118.1"
       gradientTransform="translate(7974,8524)"
       gradientUnits="userSpaceOnUse">
      <stop
         stop-color="#fff44f"
         offset=".113"
         id="stop978425" />
      <stop
         stop-color="#ff980e"
         offset=".456"
         id="stop978427" />
      <stop
         stop-color="#ff5634"
         offset=".622"
         id="stop978429" />
      <stop
         stop-color="#ff3647"
         offset=".716"
         id="stop978431" />
      <stop
         stop-color="#e31587"
         offset=".904"
         id="stop978433" />
    </radialGradient>
    <radialGradient
       id="i"
       cx="-7927"
       cy="-8523"
       r="86.5"
       gradientTransform="matrix(0.105,0.995,-0.653,0.069,-4685,8470)"
       gradientUnits="userSpaceOnUse">
      <stop
         stop-color="#fff44f"
         offset="0"
         id="stop978436" />
      <stop
         stop-color="#ffe847"
         offset=".06"
         id="stop978438" />
      <stop
         stop-color="#ffc830"
         offset=".168"
         id="stop978440" />
      <stop
         stop-color="#ff980e"
         offset=".304"
         id="stop978442" />
      <stop
         stop-color="#ff8b16"
         offset=".356"
         id="stop978444" />
      <stop
         stop-color="#ff672a"
         offset=".455"
         id="stop978446" />
      <stop
         stop-color="#ff3647"
         offset=".57"
         id="stop978448" />
      <stop
         stop-color="#e31587"
         offset=".737"
         id="stop978450" />
    </radialGradient>
    <radialGradient
       id="j"
       cx="-7938"
       cy="-8508"
       r="73.720001"
       gradientTransform="translate(7974,8524)"
       gradientUnits="userSpaceOnUse">
      <stop
         stop-color="#fff44f"
         offset=".137"
         id="stop978453" />
      <stop
         stop-color="#ff980e"
         offset=".48"
         id="stop978455" />
      <stop
         stop-color="#ff5634"
         offset=".592"
         id="stop978457" />
      <stop
         stop-color="#ff3647"
         offset=".655"
         id="stop978459" />
      <stop
         stop-color="#e31587"
         offset=".904"
         id="stop978461" />
    </radialGradient>
    <radialGradient
       id="k"
       cx="-7919"
       cy="-8504"
       r="80.690002"
       gradientTransform="translate(7974,8524)"
       gradientUnits="userSpaceOnUse">
      <stop
         stop-color="#fff44f"
         offset=".094"
         id="stop978464" />
      <stop
         stop-color="#ffe141"
         offset=".231"
         id="stop978466" />
      <stop
         stop-color="#ffaf1e"
         offset=".509"
         id="stop978468" />
      <stop
         stop-color="#ff980e"
         offset=".626"
         id="stop978470" />
    </radialGradient>
    <linearGradient
       id="l"
       x1="70.010002"
       x2="15.27"
       y1="12.06"
       y2="66.809998"
       gradientTransform="translate(-1.3,-0.004086)"
       gradientUnits="userSpaceOnUse">
      <stop
         stop-color="#fff44f"
         stop-opacity=".8"
         offset=".167"
         id="stop978473" />
      <stop
         stop-color="#fff44f"
         stop-opacity=".634"
         offset=".266"
         id="stop978475" />
      <stop
         stop-color="#fff44f"
         stop-opacity=".217"
         offset=".489"
         id="stop978477" />
      <stop
         stop-color="#fff44f"
         stop-opacity="0"
         offset=".6"
         id="stop978479" />
    </linearGradient>
    <linearGradient
       y2="177.0506"
       x2="237.03833"
       y1="177.0506"
       x1="58.703171"
       gradientUnits="userSpaceOnUse"
       id="SVGID_1_"
       gradientTransform="matrix(0.26458333,0,0,0.26458333,268.57943,556.82347)">
		<stop
   id="stop914"
   style="stop-color:#0C59A4"
   offset="0" />

		<stop
   id="stop916"
   style="stop-color:#114A8B"
   offset="1" />

	</linearGradient>
    <radialGradient
       gradientUnits="userSpaceOnUse"
       gradientTransform="matrix(0.26458333,0,0,0.25163727,268.57943,559.13263)"
       r="95.383972"
       cy="178.38393"
       cx="157.20409"
       id="SVGID_2_">
		<stop
   id="stop921"
   style="stop-color:#000000;stop-opacity:0"
   offset="0.71659" />

		<stop
   id="stop923"
   style="stop-color:#000000;stop-opacity:0.53"
   offset="0.9459" />

		<stop
   id="stop925"
   style="stop-color:#000000"
   offset="1" />

	</radialGradient>
    <linearGradient
       y2="221.01947"
       x2="41.327961"
       y1="99.683792"
       x1="152.72325"
       gradientUnits="userSpaceOnUse"
       id="SVGID_3_"
       gradientTransform="matrix(0.26458333,0,0,0.26458333,268.57943,556.82347)">
		<stop
   id="stop930"
   style="stop-color:#1B9DE2"
   offset="0" />

		<stop
   id="stop932"
   style="stop-color:#1595DF"
   offset="0.16164" />

		<stop
   id="stop934"
   style="stop-color:#0680D7"
   offset="0.66749" />

		<stop
   id="stop936"
   style="stop-color:#0078D4"
   offset="1" />

	</linearGradient>
    <radialGradient
       gradientUnits="userSpaceOnUse"
       gradientTransform="matrix(0.0392721,-0.26165175,0.21084116,0.03164417,242.75877,621.75686)"
       r="143.23575"
       cy="198.66367"
       cx="71.304077"
       id="SVGID_4_">
		<stop
   id="stop941"
   style="stop-color:#000000;stop-opacity:0"
   offset="0.76293" />

		<stop
   id="stop943"
   style="stop-color:#000000;stop-opacity:0.5"
   offset="0.9459" />

		<stop
   id="stop945"
   style="stop-color:#000000"
   offset="1" />

	</radialGradient>
    <radialGradient
       gradientUnits="userSpaceOnUse"
       gradientTransform="matrix(-0.00982927,0.26440077,-0.56312858,-0.02093648,301.86137,563.51551)"
       r="202.43143"
       cy="46.80529"
       cx="25.233761"
       id="SVGID_5_">
		<stop
   id="stop950"
   style="stop-color:#35C1F1"
   offset="0" />

		<stop
   id="stop952"
   style="stop-color:#34C1ED"
   offset="0.11079" />

		<stop
   id="stop954"
   style="stop-color:#2FC2DF"
   offset="0.23164" />

		<stop
   id="stop956"
   style="stop-color:#2BC3D2"
   offset="0.31446" />

		<stop
   id="stop958"
   style="stop-color:#36C752"
   offset="0.67338" />

	</radialGradient>
    <radialGradient
       gradientUnits="userSpaceOnUse"
       gradientTransform="matrix(0.07437173,0.25391533,-0.20730898,0.06071923,330.78213,511.07158)"
       r="97.337921"
       cy="77.575531"
       cx="242.46877"
       id="SVGID_6_">
		<stop
   id="stop963"
   style="stop-color:#66EB6E"
   offset="0" />

		<stop
   id="stop965"
   style="stop-color:#66EB6E;stop-opacity:0"
   offset="1" />

	</radialGradient>
    <filter
       id="c-3"
       width="1.096"
       height="1.096"
       x="-0.048000004"
       y="-0.048"
       color-interpolation-filters="sRGB">
      <feGaussianBlur
         stdDeviation="3.5643107"
         id="feGaussianBlur979797" />
    </filter>
    <linearGradient
       xlink:href="#a-8"
       id="d-7"
       x1="412.97501"
       x2="412.97501"
       y1="237.60777"
       y2="59.392235"
       gradientTransform="matrix(0.35154,0,0,0.35154,206.79018,159.77261)"
       gradientUnits="userSpaceOnUse" />
    <linearGradient
       id="a-8">
      <stop
         offset="0"
         stop-color="#bdbdbd"
         id="stop979788" />
      <stop
         offset="1"
         stop-color="#fff"
         id="stop979790" />
    </linearGradient>
    <radialGradient
       xlink:href="#b-0"
       id="e-5"
       cx="413.06128"
       cy="136.81819"
       r="82.125351"
       fx="413.06128"
       fy="136.81819"
       gradientTransform="matrix(0.38143,0,0,0.38143,194.54473,155.58044)"
       gradientUnits="userSpaceOnUse" />
    <linearGradient
       id="b-0">
      <stop
         offset="0"
         stop-color="#06c2e7"
         id="stop979777" />
      <stop
         offset=".25000015"
         stop-color="#0db8ec"
         id="stop979779" />
      <stop
         offset=".5000003"
         stop-color="#12aef1"
         id="stop979781" />
      <stop
         offset=".75000012"
         stop-color="#1f86f9"
         id="stop979783" />
      <stop
         offset="1"
         stop-color="#107ddd"
         id="stop979785" />
    </linearGradient>
    <filter
       id="f-6"
       width="1.0429894"
       height="1.0445137"
       x="-0.021494724"
       y="-0.022256861"
       color-interpolation-filters="sRGB">
      <feGaussianBlur
         stdDeviation=".95767362"
         id="feGaussianBlur979794" />
    </filter>
    <linearGradient
       id="a-0"
       x1="3.2172999"
       y1="15"
       x2="44.7812"
       y2="15"
       gradientUnits="userSpaceOnUse">
      <stop
         offset="0"
         stop-color="#d93025"
         id="stop979848" />
      <stop
         offset="1"
         stop-color="#ea4335"
         id="stop979850" />
    </linearGradient>
    <linearGradient
       id="b-8"
       x1="20.721901"
       y1="47.6791"
       x2="41.503899"
       y2="11.6837"
       gradientUnits="userSpaceOnUse">
      <stop
         offset="0"
         stop-color="#fcc934"
         id="stop979853" />
      <stop
         offset="1"
         stop-color="#fbbc04"
         id="stop979855" />
    </linearGradient>
    <linearGradient
       id="c-0"
       x1="26.598101"
       y1="46.501499"
       x2="5.8161001"
       y2="10.506"
       gradientUnits="userSpaceOnUse">
      <stop
         offset="0"
         stop-color="#1e8e3e"
         id="stop979858" />
      <stop
         offset="1"
         stop-color="#34a853"
         id="stop979860" />
    </linearGradient>
    <radialGradient
       id="b-1"
       cx="-7907"
       cy="-8515"
       r="80.800003"
       gradientTransform="translate(7974,8524)"
       gradientUnits="userSpaceOnUse">
      <stop
         stop-color="#ffbd4f"
         offset=".129"
         id="stop978355-5" />
      <stop
         stop-color="#ffac31"
         offset=".186"
         id="stop978357-0" />
      <stop
         stop-color="#ff9d17"
         offset=".247"
         id="stop978359-8" />
      <stop
         stop-color="#ff980e"
         offset=".283"
         id="stop978361-3" />
      <stop
         stop-color="#ff563b"
         offset=".403"
         id="stop978363-5" />
      <stop
         stop-color="#ff3750"
         offset=".467"
         id="stop978365-6" />
      <stop
         stop-color="#f5156c"
         offset=".71"
         id="stop978367-5" />
      <stop
         stop-color="#eb0878"
         offset=".782"
         id="stop978369-9" />
      <stop
         stop-color="#e50080"
         offset=".86"
         id="stop978371-9" />
    </radialGradient>
    <radialGradient
       id="c-07"
       cx="-7937"
       cy="-8482"
       r="80.800003"
       gradientTransform="translate(7974,8524)"
       gradientUnits="userSpaceOnUse">
      <stop
         stop-color="#960e18"
         offset=".3"
         id="stop978374-6" />
      <stop
         stop-color="#b11927"
         stop-opacity=".74"
         offset=".351"
         id="stop978376-3" />
      <stop
         stop-color="#db293d"
         stop-opacity=".343"
         offset=".435"
         id="stop978378-7" />
      <stop
         stop-color="#f5334b"
         stop-opacity=".094"
         offset=".497"
         id="stop978380-6" />
      <stop
         stop-color="#ff3750"
         stop-opacity="0"
         offset=".53"
         id="stop978382-1" />
    </radialGradient>
    <radialGradient
       id="d-5"
       cx="-7927"
       cy="-8533"
       r="58.529999"
       gradientTransform="translate(7974,8524)"
       gradientUnits="userSpaceOnUse">
      <stop
         stop-color="#fff44f"
         offset=".132"
         id="stop978385-0" />
      <stop
         stop-color="#ffdc3e"
         offset=".252"
         id="stop978387-6" />
      <stop
         stop-color="#ff9d12"
         offset=".506"
         id="stop978389-5" />
      <stop
         stop-color="#ff980e"
         offset=".526"
         id="stop978391-0" />
    </radialGradient>
    <radialGradient
       id="e-8"
       cx="-7946"
       cy="-8461"
       r="38.470001"
       gradientTransform="translate(7974,8524)"
       gradientUnits="userSpaceOnUse">
      <stop
         stop-color="#3a8ee6"
         offset=".353"
         id="stop978394-1" />
      <stop
         stop-color="#5c79f0"
         offset=".472"
         id="stop978396-2" />
      <stop
         stop-color="#9059ff"
         offset=".669"
         id="stop978398-2" />
      <stop
         stop-color="#c139e6"
         offset="1"
         id="stop978400-6" />
    </radialGradient>
    <radialGradient
       id="f-9"
       cx="-7936"
       cy="-8492"
       r="20.4"
       gradientTransform="matrix(0.972,-0.235,0.275,1.138,10090,7834)"
       gradientUnits="userSpaceOnUse">
      <stop
         stop-color="#9059ff"
         stop-opacity="0"
         offset=".206"
         id="stop978403-1" />
      <stop
         stop-color="#8c4ff3"
         stop-opacity=".064"
         offset=".278"
         id="stop978405-0" />
      <stop
         stop-color="#7716a8"
         stop-opacity=".45"
         offset=".747"
         id="stop978407-4" />
      <stop
         stop-color="#6e008b"
         stop-opacity=".6"
         offset=".975"
         id="stop978409-2" />
    </radialGradient>
    <radialGradient
       id="g-7"
       cx="-7938"
       cy="-8518"
       r="27.68"
       gradientTransform="translate(7974,8524)"
       gradientUnits="userSpaceOnUse">
      <stop
         stop-color="#ffe226"
         offset="0"
         id="stop978412-4" />
      <stop
         stop-color="#ffdb27"
         offset=".121"
         id="stop978414-0" />
      <stop
         stop-color="#ffc82a"
         offset=".295"
         id="stop978416-3" />
      <stop
         stop-color="#ffa930"
         offset=".502"
         id="stop978418-2" />
      <stop
         stop-color="#ff7e37"
         offset=".732"
         id="stop978420-8" />
      <stop
         stop-color="#ff7139"
         offset=".792"
         id="stop978422-0" />
    </radialGradient>
    <radialGradient
       id="h-3"
       cx="-7916"
       cy="-8536"
       r="118.1"
       gradientTransform="translate(7974,8524)"
       gradientUnits="userSpaceOnUse">
      <stop
         stop-color="#fff44f"
         offset=".113"
         id="stop978425-7" />
      <stop
         stop-color="#ff980e"
         offset=".456"
         id="stop978427-0" />
      <stop
         stop-color="#ff5634"
         offset=".622"
         id="stop978429-0" />
      <stop
         stop-color="#ff3647"
         offset=".716"
         id="stop978431-3" />
      <stop
         stop-color="#e31587"
         offset=".904"
         id="stop978433-4" />
    </radialGradient>
    <radialGradient
       id="i-9"
       cx="-7927"
       cy="-8523"
       r="86.5"
       gradientTransform="matrix(0.105,0.995,-0.653,0.069,-4685,8470)"
       gradientUnits="userSpaceOnUse">
      <stop
         stop-color="#fff44f"
         offset="0"
         id="stop978436-2" />
      <stop
         stop-color="#ffe847"
         offset=".06"
         id="stop978438-7" />
      <stop
         stop-color="#ffc830"
         offset=".168"
         id="stop978440-4" />
      <stop
         stop-color="#ff980e"
         offset=".304"
         id="stop978442-2" />
      <stop
         stop-color="#ff8b16"
         offset=".356"
         id="stop978444-5" />
      <stop
         stop-color="#ff672a"
         offset=".455"
         id="stop978446-2" />
      <stop
         stop-color="#ff3647"
         offset=".57"
         id="stop978448-4" />
      <stop
         stop-color="#e31587"
         offset=".737"
         id="stop978450-4" />
    </radialGradient>
    <radialGradient
       id="j-3"
       cx="-7938"
       cy="-8508"
       r="73.720001"
       gradientTransform="translate(7974,8524)"
       gradientUnits="userSpaceOnUse">
      <stop
         stop-color="#fff44f"
         offset=".137"
         id="stop978453-8" />
      <stop
         stop-color="#ff980e"
         offset=".48"
         id="stop978455-6" />
      <stop
         stop-color="#ff5634"
         offset=".592"
         id="stop978457-0" />
      <stop
         stop-color="#ff3647"
         offset=".655"
         id="stop978459-8" />
      <stop
         stop-color="#e31587"
         offset=".904"
         id="stop978461-9" />
    </radialGradient>
    <radialGradient
       id="k-2"
       cx="-7919"
       cy="-8504"
       r="80.690002"
       gradientTransform="translate(7974,8524)"
       gradientUnits="userSpaceOnUse">
      <stop
         stop-color="#fff44f"
         offset=".094"
         id="stop978464-2" />
      <stop
         stop-color="#ffe141"
         offset=".231"
         id="stop978466-3" />
      <stop
         stop-color="#ffaf1e"
         offset=".509"
         id="stop978468-1" />
      <stop
         stop-color="#ff980e"
         offset=".626"
         id="stop978470-8" />
    </radialGradient>
    <filter
       id="c-3-4"
       width="1.096"
       height="1.096"
       x="-0.048000003"
       y="-0.048000001"
       color-interpolation-filters="sRGB">
      <feGaussianBlur
         stdDeviation="3.5643107"
         id="feGaussianBlur979797-5" />
    </filter>
    <linearGradient
       xlink:href="#a-8"
       id="d-7-1"
       x1="412.97501"
       x2="412.97501"
       y1="237.60777"
       y2="59.392235"
       gradientTransform="matrix(0.35154,0,0,0.35154,206.79018,159.77261)"
       gradientUnits="userSpaceOnUse" />
    <radialGradient
       xlink:href="#b-0"
       id="e-5-7"
       cx="413.06128"
       cy="136.81819"
       r="82.125351"
       fx="413.06128"
       fy="136.81819"
       gradientTransform="matrix(0.38143,0,0,0.38143,194.54473,155.58044)"
       gradientUnits="userSpaceOnUse" />
    <filter
       id="f-6-3"
       width="1.0429894"
       height="1.0445137"
       x="-0.021494724"
       y="-0.022256861"
       color-interpolation-filters="sRGB">
      <feGaussianBlur
         stdDeviation=".95767362"
         id="feGaussianBlur979794-3" />
    </filter>
  </defs>
  <g
     inkscape:label="Layer 1"
     inkscape:groupmode="layer"
     id="layer1"
     transform="translate(-71.728731,-173.48236)">
    <g
       id="g979846"
       transform="matrix(0.3283095,0,0,0.3283095,71.72507,173.51031)"
       style="stroke-width:3.0459">
      <path
         d="M 502.08277,148.5 A 89.107765,89.107765 0 0 1 412.975,237.60777 89.107765,89.107765 0 0 1 323.86724,148.5 89.107765,89.107765 0 0 1 412.975,59.392235 89.107765,89.107765 0 0 1 502.08277,148.5 Z"
         filter="url(#c)"
         opacity="0.53"
         paint-order="markers stroke fill"
         transform="matrix(0.33865,0,0,0.3261,-106.76956,-14.47833)"
         id="path979803"
         style="stroke-width:50.2969;filter:url(#c-3-4)" />
      <path
         fill="url(#d)"
         stroke="#cdcdcd"
         stroke-linecap="round"
         stroke-linejoin="round"
         stroke-width="0.283306"
         d="m 383.29373,211.97671 a 31.325188,31.325188 0 0 1 -31.32519,31.32519 31.325188,31.325188 0 0 1 -31.32518,-31.32519 31.325188,31.325188 0 0 1 31.32518,-31.32519 31.325188,31.325188 0 0 1 31.32519,31.32519 z"
         paint-order="markers stroke fill"
         transform="translate(-318.88562,-180.59501)"
         id="path979805"
         style="fill:url(#d-7-1)" />
      <path
         fill="url(#e)"
         d="m 380.83911,211.97671 a 28.870571,28.870571 0 0 1 -28.87057,28.87057 28.870571,28.870571 0 0 1 -28.87057,-28.87057 28.870571,28.870571 0 0 1 28.87057,-28.87057 28.870571,28.870571 0 0 1 28.87057,28.87057 z"
         paint-order="markers stroke fill"
         transform="translate(-318.88562,-180.59501)"
         id="path979807"
         style="fill:url(#e-5-7);stroke-width:50.2969" />
      <path
         fill="#f4f2f3"
         d="m 33.08292,4.01671 c -0.23319,0 -0.42092,0.18772 -0.42092,0.42092 V 9.2928 c 0,0.2332 0.18773,0.42092 0.42092,0.42092 0.2332,0 0.42092,-0.18772 0.42092,-0.42092 V 4.43763 c 0,-0.2332 -0.18772,-0.42092 -0.42092,-0.42092 z m -2.75367,0.17404 c -0.0279,-0.003 -0.0566,-0.003 -0.0856,3.5e-4 -0.23194,0.0242 -0.39917,0.2304 -0.37495,0.46234 l 0.21218,2.03119 c 0.0242,0.23194 0.23041,0.39918 0.46233,0.37496 0.23195,-0.0242 0.39919,-0.2304 0.37496,-0.46234 l -0.212,-2.03118 C 30.68497,4.36312 30.5244,4.2097 30.32922,4.19075 Z m 5.5266,0.002 c -0.19519,0.0188 -0.35578,0.17221 -0.37714,0.37513 L 35.26508,6.5989 c -0.0244,0.23192 0.14285,0.43831 0.37478,0.4627 0.23191,0.0244 0.43811,-0.14268 0.46251,-0.3746 l 0.21364,-2.03119 c 0.0244,-0.23192 -0.14286,-0.43814 -0.37478,-0.46252 -0.029,-0.003 -0.0575,-0.003 -0.0854,-5.2e-4 z m -8.3553,0.4082 c -0.028,2.2e-4 -0.0565,0.003 -0.085,0.009 -0.22814,0.0483 -0.37294,0.27089 -0.32464,0.49903 l 1.00552,4.74981 c 0.0483,0.22814 0.27088,0.37293 0.49902,0.32464 0.22814,-0.0483 0.37294,-0.27072 0.32465,-0.49886 L 27.91458,4.93459 C 27.87228,4.73496 27.69666,4.59916 27.50057,4.60069 Z m 11.18382,0.004 c -0.19609,-0.002 -0.3718,0.13394 -0.41419,0.33353 l -1.00897,4.74925 c -0.0485,0.22811 0.0962,0.45076 0.32427,0.49922 0.22811,0.0485 0.45076,-0.0962 0.49921,-0.32428 l 1.00897,-4.74926 c 0.0485,-0.2281 -0.0962,-0.45076 -0.32427,-0.49921 -0.0285,-0.006 -0.057,-0.009 -0.085,-0.009 z M 24.801,5.36212 c -0.0545,-0.005 -0.11077,0.001 -0.16622,0.0194 -0.22178,0.0721 -0.34238,0.3085 -0.27031,0.53028 l 0.6311,1.94236 c 0.0721,0.22179 0.30868,0.34238 0.53046,0.27032 0.22179,-0.0721 0.3422,-0.30868 0.27013,-0.53046 L 25.16507,5.65166 C 25.11107,5.48532 24.96448,5.37598 24.801,5.36208 Z m 16.56765,0.001 c -0.16348,0.0139 -0.30999,0.12324 -0.36406,0.28957 l -0.63147,1.94218 c -0.0721,0.22177 0.0484,0.45837 0.27014,0.53046 0.22178,0.0721 0.45837,-0.0484 0.53047,-0.27013 l 0.63146,-1.94236 c 0.0721,-0.22178 -0.0484,-0.45837 -0.27014,-0.53046 -0.0554,-0.018 -0.11191,-0.0239 -0.1664,-0.0193 z m -19.23721,0.9759 c -0.0547,0.001 -0.11004,0.013 -0.16331,0.0367 -0.21298,0.0947 -0.30836,0.34244 -0.21364,0.55553 l 1.97197,4.43662 c 0.0947,0.21308 0.34244,0.30836 0.55553,0.21364 0.21298,-0.0947 0.30854,-0.34244 0.21382,-0.55553 L 22.52365,6.58936 C 22.45265,6.42953 22.29548,6.33585 22.13144,6.33903 Z m 21.93693,0.0149 c -0.16403,-0.003 -0.32132,0.0901 -0.39257,0.24979 l -1.97798,4.4339 c -0.095,0.21296 -4e-5,0.46088 0.21292,0.55589 0.21297,0.095 0.46088,5e-5 0.5559,-0.21291 L 44.4446,6.9467 c 0.095,-0.21297 5e-5,-0.46089 -0.21291,-0.5559 C 44.17849,6.3671 44.12305,6.3551 44.06837,6.3539 Z M 19.65353,7.6501 c -0.0808,-0.006 -0.16406,0.012 -0.23979,0.0558 -0.20196,0.1166 -0.27065,0.37302 -0.15406,0.57497 l 1.02115,1.76869 c 0.1166,0.20196 0.373,0.27065 0.57496,0.15405 0.20195,-0.1166 0.27065,-0.37301 0.15406,-0.57497 L 19.9887,7.85996 C 19.9158,7.73373 19.78823,7.65955 19.65353,7.65013 Z m 26.85877,0 c -0.13468,0.009 -0.26211,0.0836 -0.33498,0.20983 l -1.02133,1.76868 c -0.1166,0.20196 -0.0477,0.45837 0.15424,0.57497 0.20196,0.1166 0.45837,0.0479 0.57497,-0.15405 l 1.02114,-1.76869 c 0.1166,-0.20195 0.0479,-0.45837 -0.15406,-0.57497 -0.0757,-0.0437 -0.15916,-0.0614 -0.23998,-0.0558 z M 17.24739,9.15083 c -0.081,0.003 -0.16211,0.029 -0.2329,0.0803 -0.18875,0.13693 -0.23048,0.39911 -0.0935,0.58787 l 2.85086,3.92995 c 0.13693,0.18876 0.39929,0.23049 0.58805,0.0936 0.18876,-0.13693 0.23049,-0.39911 0.0935,-0.58787 L 17.60236,9.32473 C 17.51676,9.20675 17.38232,9.14626 17.24739,9.15087 Z m 31.70122,0.0214 c -0.13493,-0.005 -0.26941,0.0555 -0.35516,0.17331 l -2.8563,3.92614 c -0.1372,0.18857 -0.0958,0.45086 0.0928,0.58805 0.18858,0.13718 0.45087,0.0959 0.58806,-0.0926 l 2.85613,-3.92614 c 0.13718,-0.18858 0.0957,-0.45086 -0.0928,-0.58805 -0.0707,-0.0514 -0.15176,-0.0778 -0.23272,-0.0807 z m -33.85196,1.78231 c -0.10744,-0.006 -0.21708,0.0299 -0.30374,0.10791 -0.17332,0.15602 -0.18725,0.42109 -0.0312,0.59441 l 1.36648,1.51799 c 0.15601,0.17332 0.42109,0.18726 0.59441,0.0312 0.17332,-0.15602 0.18726,-0.42127 0.0312,-0.59459 l -1.3663,-1.51781 c -0.078,-0.0867 -0.18339,-0.13351 -0.29085,-0.13916 z m 35.97562,0.003 c -0.10745,0.006 -0.21282,0.0525 -0.29084,0.13915 l -1.36648,1.51763 c -0.15606,0.1733 -0.14224,0.43855 0.0311,0.59459 0.17329,0.15604 0.43837,0.14205 0.59441,-0.0312 l 1.36666,-1.51762 c 0.15605,-0.17331 0.14205,-0.43856 -0.0312,-0.59459 -0.0867,-0.078 -0.19611,-0.11354 -0.30357,-0.10791 z m -38.03696,1.97705 c -0.10745,0.006 -0.21266,0.0525 -0.29067,0.13916 -0.15602,0.17332 -0.14207,0.43839 0.0312,0.59441 l 3.60841,3.24834 c 0.17332,0.15603 0.43839,0.14207 0.5944,-0.0312 0.15603,-0.17331 0.14226,-0.43839 -0.0311,-0.59441 l -3.60858,-3.24834 c -0.0867,-0.078 -0.1963,-0.11356 -0.30376,-0.10791 z m 40.10831,0.0142 c -0.10745,-0.006 -0.21722,0.0298 -0.30393,0.10773 l -3.61059,3.24581 c -0.17342,0.15589 -0.18768,0.42097 -0.0318,0.5944 0.1559,0.17342 0.42117,0.18751 0.59459,0.0316 l 3.61077,-3.2458 c 0.17342,-0.1559 0.1875,-0.42098 0.0316,-0.59441 -0.078,-0.0867 -0.18322,-0.13361 -0.29066,-0.13933 z m -41.8225,2.18998 c -0.13494,-0.005 -0.26949,0.0558 -0.35515,0.17367 -0.13707,0.18866 -0.0955,0.4508 0.0932,0.58787 l 1.65224,1.20044 c 0.18866,0.13708 0.45079,0.0957 0.58786,-0.093 0.13708,-0.18866 0.0956,-0.45098 -0.093,-0.58805 l -1.65224,-1.20044 c -0.0707,-0.0514 -0.15193,-0.0776 -0.23289,-0.0805 z m 43.53505,0.0153 c -0.081,0.003 -0.16211,0.0289 -0.23289,0.0803 l -1.65297,1.19936 c -0.18875,0.13694 -0.2305,0.39929 -0.0936,0.58805 0.13695,0.18875 0.39912,0.23031 0.58787,0.0934 l 1.65316,-1.19935 c 0.18875,-0.13694 0.23031,-0.39912 0.0934,-0.58787 -0.0856,-0.11797 -0.22004,-0.17847 -0.35497,-0.17385 z M 9.7192,17.48992 c -0.13469,0.009 -0.26211,0.0836 -0.33499,0.20982 -0.1166,0.20195 -0.0479,0.45837 0.15405,0.57497 l 4.20463,2.42758 c 0.20195,0.1166 0.45837,0.0479 0.57497,-0.15405 0.1166,-0.20195 0.0479,-0.45837 -0.15405,-0.57497 L 9.95918,17.54568 c -0.0757,-0.0437 -0.15917,-0.0614 -0.23998,-0.0558 z m 46.72744,0 c -0.0808,-0.006 -0.16425,0.012 -0.23998,0.0558 l -4.20463,2.42759 c -0.20195,0.1166 -0.27065,0.37302 -0.15405,0.57497 0.1166,0.20195 0.37302,0.27065 0.57497,0.15405 l 4.20482,-2.42758 c 0.20195,-0.1166 0.27064,-0.37302 0.15404,-0.57497 -0.0729,-0.12622 -0.20048,-0.20041 -0.33517,-0.20982 z m -47.9386,2.50606 c -0.16403,-0.004 -0.32133,0.0899 -0.39258,0.2496 -0.095,0.21298 -6e-5,0.46091 0.21292,0.5559 l 1.86532,0.83202 c 0.21298,0.095 0.46091,7e-5 0.5559,-0.2129 0.095,-0.21298 -1.2e-4,-0.46091 -0.21309,-0.5559 L 8.67136,20.03268 c -0.0532,-0.0238 -0.10865,-0.0356 -0.16332,-0.0367 z m 49.15794,0.0173 c -0.0547,10e-4 -0.11024,0.013 -0.16351,0.0367 l -1.86569,0.83057 c -0.21304,0.0949 -0.3083,0.34267 -0.21346,0.55571 0.0949,0.21304 0.34286,0.3083 0.5559,0.21346 l 1.8657,-0.83076 c 0.21303,-0.0948 0.30811,-0.34267 0.21327,-0.55571 -0.0711,-0.15978 -0.22818,-0.25323 -0.39221,-0.24997 z M 7.42859,22.61527 c -0.16349,0.0137 -0.31006,0.12291 -0.36424,0.28921 -0.0722,0.22172 0.048,0.45839 0.26977,0.53064 l 4.61629,1.50418 c 0.22171,0.0722 0.45839,-0.0481 0.53064,-0.26977 0.0722,-0.22172 -0.048,-0.4584 -0.26977,-0.53064 L 7.595,22.6347 C 7.5396,22.6166 7.48308,22.6107 7.42859,22.6153 Z m 51.31484,0.018 c -0.0545,-0.005 -0.11078,0.001 -0.16623,0.0194 l -4.61736,1.50092 c -0.22178,0.0721 -0.34223,0.30869 -0.27014,0.53046 0.0721,0.22177 0.30868,0.34223 0.53046,0.27014 l 4.61719,-1.50092 c 0.22178,-0.0721 0.3424,-0.30869 0.27032,-0.53046 -0.0541,-0.16633 -0.20077,-0.2757 -0.36424,-0.28957 z M 6.75607,25.36479 c -0.1961,-0.002 -0.37196,0.13412 -0.41438,0.33371 -0.0485,0.2281 0.0962,0.45073 0.32427,0.49922 l 1.99777,0.42455 c 0.2281,0.0485 0.45072,-0.0962 0.49921,-0.32427 0.0485,-0.22811 -0.0962,-0.45074 -0.32427,-0.49922 L 6.84108,25.37423 c -0.0285,-0.006 -0.057,-0.009 -0.085,-0.009 z m 52.65462,0.004 c -0.028,2.3e-4 -0.0563,0.004 -0.0848,0.009 l -1.99778,0.42437 c -0.2281,0.0485 -0.37271,0.27093 -0.32426,0.49904 0.0485,0.2281 0.2711,0.3729 0.49921,0.32445 l 1.99759,-0.42437 c 0.2281,-0.0485 0.3729,-0.27111 0.32445,-0.49922 -0.0424,-0.19959 -0.21829,-0.33537 -0.41437,-0.33371 z M 6.24704,28.13046 c -0.1952,0.0187 -0.35587,0.17185 -0.37731,0.37477 -0.0245,0.2319 0.14232,0.43838 0.37422,0.46288 l 4.82829,0.51048 c 0.2319,0.0245 0.43838,-0.1425 0.46288,-0.37441 0.0245,-0.2319 -0.1425,-0.43838 -0.37441,-0.46288 L 6.33243,28.13082 c -0.029,-0.003 -0.0575,-0.003 -0.0854,-3.5e-4 z m 53.6763,0.0363 c -0.0279,-0.003 -0.0566,-0.003 -0.0856,3.5e-4 l -4.82883,0.50394 c -0.23194,0.0242 -0.39914,0.2304 -0.37496,0.46233 0.0242,0.23194 0.2304,0.39918 0.46234,0.37496 l 4.82883,-0.50394 c 0.23193,-0.0242 0.39914,-0.2304 0.37496,-0.46234 -0.0212,-0.20294 -0.1816,-0.35634 -0.37678,-0.37532 z M 6.16529,30.96149 c -0.2332,0 -0.42091,0.18772 -0.42091,0.42092 0,0.23319 0.18771,0.42091 0.42091,0.42091 h 2.04228 c 0.23319,0 0.4211,-0.18772 0.4211,-0.42091 0,-0.2332 -0.18791,-0.42092 -0.4211,-0.42092 z m 51.79298,0 c -0.23319,0 -0.42092,0.18772 -0.42092,0.42092 10e-6,0.23319 0.18773,0.42091 0.42092,0.42091 h 2.04228 c 0.23319,0 0.42092,-0.18772 0.42092,-0.42091 0,-0.2332 -0.18773,-0.42092 -0.42092,-0.42092 z M 11.15508,33.2561 c -0.0279,-0.003 -0.0564,-0.003 -0.0854,3.5e-4 l -4.82902,0.50394 c -0.23194,0.0242 -0.39913,0.2304 -0.37495,0.46233 0.0242,0.23194 0.2304,0.39918 0.46233,0.37496 l 4.82902,-0.50394 c 0.23194,-0.0242 0.39913,-0.2304 0.37495,-0.46234 -0.0212,-0.20294 -0.18177,-0.35634 -0.37695,-0.37531 z m 43.85314,0.0298 c -0.19521,0.0187 -0.35588,0.17186 -0.37732,0.37478 -0.0245,0.2319 0.14233,0.43838 0.37423,0.46288 l 4.82829,0.51048 c 0.23191,0.0245 0.43837,-0.14251 0.46288,-0.37441 0.0245,-0.2319 -0.14251,-0.43838 -0.37441,-0.46288 l -4.8281,-0.51048 c -0.029,-0.003 -0.0577,-0.003 -0.0856,-3.5e-4 z m -46.2602,2.8436 c -0.028,2.4e-4 -0.0565,0.003 -0.085,0.009 l -1.99777,0.42436 c -0.22811,0.0485 -0.37271,0.27111 -0.32427,0.49922 0.0485,0.22811 0.27111,0.37272 0.49922,0.32427 l 1.99777,-0.42419 c 0.2281,-0.0485 0.37271,-0.27111 0.32426,-0.49921 -0.0424,-0.1996 -0.2181,-0.33537 -0.41419,-0.33372 z m 48.66925,0.004 c -0.19609,-0.002 -0.37177,0.13394 -0.41419,0.33353 -0.0485,0.2281 0.096,0.45074 0.32409,0.49922 l 1.99777,0.42455 c 0.22809,0.0485 0.45073,-0.096 0.49921,-0.32409 0.0485,-0.2281 -0.0962,-0.45092 -0.32426,-0.4994 l -1.9976,-0.42455 c -0.0285,-0.006 -0.057,-0.009 -0.085,-0.009 z m -45.30519,1.65787 c -0.0545,-0.005 -0.11077,10e-4 -0.16622,0.0194 L 7.3285,39.31168 c -0.22178,0.0721 -0.34223,0.30869 -0.27014,0.53046 0.0721,0.22178 0.30868,0.34222 0.53046,0.27014 l 4.61719,-1.50092 c 0.22178,-0.0721 0.34241,-0.30869 0.27032,-0.53046 -0.0541,-0.16633 -0.20077,-0.2757 -0.36425,-0.28957 z m 41.93713,0.0149 c -0.16349,0.0137 -0.31005,0.12292 -0.36423,0.28921 -0.0722,0.22173 0.048,0.4584 0.26977,0.53065 l 4.61628,1.50418 c 0.22172,0.0722 0.4584,-0.0481 0.53064,-0.26977 0.0723,-0.22172 -0.048,-0.4584 -0.26977,-0.53065 l -4.61628,-1.50418 c -0.0554,-0.0181 -0.11191,-0.024 -0.16641,-0.0194 z m -43.69909,3.27251 c -0.0547,10e-4 -0.11006,0.0128 -0.16332,0.0365 l -1.86587,0.83075 c -0.21304,0.0948 -0.30812,0.34267 -0.21328,0.55571 0.0949,0.21304 0.34268,0.30812 0.55571,0.21328 l 1.86589,-0.83058 c 0.21303,-0.0948 0.30811,-0.34267 0.21327,-0.55571 -0.0711,-0.15978 -0.22837,-0.25323 -0.3924,-0.24997 z m 45.45888,0.016 c -0.16403,-0.004 -0.32133,0.0899 -0.39258,0.24961 -0.095,0.21297 -6e-5,0.4609 0.21291,0.55589 l 1.86515,0.83202 c 0.21297,0.095 0.46091,6e-5 0.5559,-0.21291 0.095,-0.21297 6e-5,-0.4609 -0.21291,-0.55589 l -1.86515,-0.83203 c -0.0532,-0.0238 -0.10864,-0.0356 -0.16332,-0.0367 z m -41.82613,0.91214 c -0.0808,-0.006 -0.16424,0.012 -0.23998,0.0558 L 9.53826,44.4903 c -0.20195,0.1166 -0.27065,0.37302 -0.15405,0.57497 0.1166,0.20195 0.37302,0.27065 0.57497,0.15405 l 4.20463,-2.4274 c 0.20195,-0.1166 0.27064,-0.3732 0.15405,-0.57515 -0.0729,-0.12622 -0.2003,-0.20041 -0.33499,-0.20982 z m 38.20028,0 c -0.13469,0.009 -0.26229,0.0836 -0.33517,0.20982 -0.1166,0.20195 -0.0479,0.45855 0.15405,0.57515 l 4.20463,2.4274 c 0.20196,0.1166 0.45855,0.0479 0.57515,-0.15405 0.1166,-0.20195 0.0479,-0.45837 -0.15404,-0.57497 l -4.20482,-2.42758 c -0.0757,-0.0437 -0.15899,-0.0614 -0.2398,-0.0558 z m -39.24903,3.56244 c -0.081,0.003 -0.16211,0.0291 -0.2329,0.0805 l -1.65296,1.19935 c -0.18875,0.13694 -0.2305,0.39912 -0.0936,0.58787 0.13695,0.18875 0.39912,0.2305 0.58787,0.0935 l 1.65314,-1.19935 c 0.18877,-0.13693 0.23051,-0.39911 0.0936,-0.58786 -0.0856,-0.11797 -0.22022,-0.17866 -0.35516,-0.17404 z m 40.28761,0.0142 c -0.13494,-0.005 -0.26948,0.0558 -0.35515,0.17367 -0.13708,0.18865 -0.0955,0.45098 0.0932,0.58805 l 1.65224,1.20044 c 0.18866,0.13707 0.4508,0.0955 0.58787,-0.0932 0.13707,-0.18866 0.0956,-0.4508 -0.093,-0.58787 l -1.65224,-1.20044 c -0.0707,-0.0514 -0.15193,-0.0778 -0.23289,-0.0807 z m -36.54387,0.14533 c -0.10743,-0.006 -0.21702,0.0298 -0.30374,0.10773 l -3.61076,3.2458 c -0.17342,0.15589 -0.18751,0.42098 -0.0316,0.59441 0.15589,0.17342 0.42097,0.1875 0.5944,0.0316 l 3.61077,-3.2458 c 0.17342,-0.15589 0.18751,-0.42098 0.0316,-0.59441 -0.0779,-0.0867 -0.18322,-0.13361 -0.29067,-0.13933 z m 32.80012,0.0116 c -0.10745,0.006 -0.21283,0.0525 -0.29084,0.13915 -0.15603,0.17332 -0.14207,0.43839 0.0312,0.59441 l 3.60841,3.24834 c 0.17332,0.15604 0.43857,0.14208 0.59459,-0.0312 0.15603,-0.17331 0.14207,-0.43839 -0.0312,-0.5944 l -3.6086,-3.24835 c -0.0867,-0.078 -0.19611,-0.11355 -0.30356,-0.10791 z m -29.37464,3.08358 c -0.13493,-0.005 -0.2696,0.0554 -0.35534,0.1733 l -2.85613,3.92614 c -0.13719,0.18858 -0.0959,0.45087 0.0926,0.58805 0.18857,0.13719 0.45087,0.0959 0.58805,-0.0927 l 2.85613,-3.92614 c 0.13718,-0.18857 0.0959,-0.45086 -0.0926,-0.58805 -0.0707,-0.0514 -0.15175,-0.0778 -0.23271,-0.0806 z m 25.93573,0.0176 c -0.081,0.003 -0.16211,0.0289 -0.2329,0.0803 -0.18875,0.13694 -0.23048,0.39911 -0.0936,0.58787 l 2.85086,3.92995 c 0.13693,0.18876 0.39911,0.2305 0.58787,0.0936 0.18876,-0.13693 0.23049,-0.3991 0.0936,-0.58786 L 46.39404,49.01557 C 46.30844,48.8976 46.174,48.83711 46.03906,48.84172 Z m -29.6228,0.6064 c -0.10745,0.006 -0.21282,0.0525 -0.29084,0.13915 l -1.36649,1.51763 c -0.15605,0.1733 -0.14223,0.43855 0.0311,0.59459 0.1733,0.15604 0.43837,0.14205 0.5944,-0.0313 l 1.36666,-1.51762 c 0.15606,-0.1733 0.14206,-0.43856 -0.0312,-0.59459 -0.0867,-0.078 -0.19611,-0.11354 -0.30357,-0.10791 z m 33.33076,0.002 c -0.10745,-0.006 -0.21691,0.0299 -0.30356,0.10791 -0.17333,0.156 -0.18726,0.42108 -0.0313,0.5944 l 1.3663,1.51799 c 0.15602,0.17333 0.42109,0.18726 0.59442,0.0312 0.17332,-0.15601 0.18726,-0.42126 0.0312,-0.59459 l -1.36631,-1.5178 c -0.078,-0.0867 -0.18339,-0.13351 -0.29084,-0.13916 z m -25.65524,1.68366 c -0.16403,-0.004 -0.32114,0.0899 -0.39239,0.24961 l -1.97816,4.43389 c -0.095,0.21297 -5e-5,0.46089 0.21292,0.5559 0.21296,0.095 0.46089,5e-5 0.55589,-0.21291 l 1.97815,-4.4339 c 0.095,-0.21296 5e-5,-0.46089 -0.21292,-0.55589 -0.0532,-0.0238 -0.10881,-0.0356 -0.16349,-0.0367 z m 17.95556,0.0122 c -0.0547,10e-4 -0.11023,0.0128 -0.1635,0.0365 -0.21297,0.0947 -0.30836,0.34244 -0.21363,0.55553 l 1.97196,4.43662 c 0.0947,0.21297 0.34262,0.30836 0.55571,0.21364 0.21298,-0.0947 0.30836,-0.34244 0.21364,-0.55553 l -1.97197,-4.43662 c -0.071,-0.15973 -0.22818,-0.25329 -0.39221,-0.25015 z M 20.61581,52.5046 c -0.13468,0.009 -0.26212,0.0836 -0.33498,0.20982 l -1.02115,1.76869 c -0.11659,0.20195 -0.0479,0.45837 0.15406,0.57497 0.20195,0.1166 0.45837,0.0479 0.57496,-0.15405 l 1.02115,-1.76869 c 0.11659,-0.20195 0.0479,-0.45837 -0.15406,-0.57497 -0.0757,-0.0437 -0.15916,-0.0614 -0.23998,-0.0558 z m 24.93421,0 c -0.0808,-0.006 -0.16406,0.0121 -0.23979,0.0558 -0.20195,0.1166 -0.27065,0.37302 -0.15405,0.57497 l 1.02114,1.76869 c 0.1166,0.20195 0.37302,0.27064 0.57496,0.15405 0.20196,-0.1166 0.27066,-0.37302 0.15406,-0.57497 L 45.8852,52.71445 c -0.0729,-0.12622 -0.20049,-0.20041 -0.33518,-0.20982 z m -17.0545,0.0634 c -0.19609,-0.002 -0.3718,0.13394 -0.41419,0.33354 l -1.00897,4.74926 c -0.0485,0.2281 0.0962,0.45076 0.32427,0.49921 0.22811,0.0485 0.45076,-0.0962 0.49922,-0.32427 l 1.00896,-4.74926 c 0.0485,-0.2281 -0.0962,-0.45076 -0.32427,-0.49921 -0.0285,-0.006 -0.057,-0.009 -0.085,-0.009 z m 9.1599,0.003 c -0.028,2.2e-4 -0.0563,0.003 -0.0848,0.009 -0.22814,0.0483 -0.37294,0.27071 -0.32465,0.49885 l 1.00553,4.74999 c 0.0483,0.22814 0.27088,0.37293 0.49903,0.32464 0.22814,-0.0483 0.37293,-0.27089 0.32464,-0.49903 l -1.0057,-4.74965 c -0.0423,-0.19963 -0.21793,-0.33543 -0.41402,-0.33391 z m -4.5725,0.47905 c -0.23319,0 -0.42092,0.18772 -0.42092,0.42092 v 4.85517 c 0,0.2332 0.18773,0.42092 0.42092,0.42092 0.2332,0 0.42092,-0.18772 0.42092,-0.42092 v -4.85517 c 0,-0.2332 -0.18772,-0.42092 -0.42092,-0.42092 z m -7.72657,1.56886 c -0.16347,0.0139 -0.31017,0.12324 -0.36423,0.28957 l -0.63129,1.94236 c -0.0721,0.22178 0.0484,0.45837 0.27014,0.53047 0.22177,0.0721 0.45836,-0.0486 0.53046,-0.27032 l 0.63128,-1.94218 c 0.0721,-0.22177 -0.0484,-0.45836 -0.27013,-0.53046 -0.0554,-0.018 -0.11173,-0.024 -0.16623,-0.0194 z m 15.44987,10e-4 c -0.0545,-0.005 -0.11078,0.001 -0.16622,0.0193 -0.22178,0.0721 -0.34238,0.30868 -0.27033,0.53047 l 0.63111,1.94235 c 0.0721,0.22179 0.30868,0.3422 0.53046,0.27014 0.22178,-0.0721 0.34238,-0.3085 0.27032,-0.53028 l -0.63128,-1.94236 c -0.0541,-0.16634 -0.20058,-0.27568 -0.36406,-0.28957 z m -10.36543,1.08181 c -0.1952,0.0188 -0.356,0.17203 -0.37732,0.37496 l -0.21346,2.03119 c -0.0244,0.23192 0.14268,0.43812 0.3746,0.46252 0.23192,0.0244 0.4383,-0.14268 0.4627,-0.3746 l 0.21345,-2.03101 c 0.0244,-0.23192 -0.14268,-0.4383 -0.37458,-0.4627 -0.029,-0.003 -0.0575,-0.003 -0.0854,-3.5e-4 z m 5.26736,0.002 c -0.0279,-0.003 -0.0566,-0.003 -0.0856,3.5e-4 -0.23193,0.0242 -0.39917,0.2304 -0.37495,0.46233 l 0.21218,2.03138 c 0.0242,0.23193 0.2304,0.399 0.46234,0.37478 0.23193,-0.0242 0.39918,-0.23041 0.37496,-0.46234 l -0.212,-2.03119 C 36.06388,55.87608 35.9033,55.72266 35.70811,55.7037 Z"
         paint-order="markers stroke fill"
         id="path979809"
         style="stroke-width:50.2969" />
      <path
         d="m 469.09621,100.6068 -65.50955,38.06124 -41.41979,65.20654 60.59382,-44.88117 z"
         filter="url(#f)"
         opacity="0.409"
         paint-order="markers stroke fill"
         transform="matrix(0.35154,0,0,0.35154,-112.09544,-20.8224)"
         id="path979811"
         style="stroke-width:50.2969;filter:url(#f-6-3)" />
      <path
         fill="#ff5150"
         d="M 36.3834,34.838062 29.782449,27.925337 53.198524,12.17334 Z"
         paint-order="markers stroke fill"
         id="path979813"
         style="stroke-width:50.2969" />
      <path
         fill="#f1f1f1"
         d="M 36.38339,34.838059 29.782439,27.925335 12.967313,50.590054 Z"
         paint-order="markers stroke fill"
         id="path979815"
         style="stroke-width:50.2969" />
      <path
         d="M 12.96732,50.59006 36.38339,34.83805 53.19852,12.17333 Z"
         opacity="0.243"
         id="path979817"
         style="stroke-width:50.2969" />
    </g>
  </g>
</svg>
