<?xml version="1.0" encoding="UTF-8" standalone="no"?>
<!-- Created with Inkscape (http://www.inkscape.org/) -->

<svg
   width="7.6841102mm"
   height="7.6841102mm"
   viewBox="0 0 7.6841102 7.6841102"
   version="1.1"
   id="svg176683"
   inkscape:version="1.2.1 (9c6d41e410, 2022-07-14)"
   sodipodi:docname="twitter.svg"
   xmlns:inkscape="http://www.inkscape.org/namespaces/inkscape"
   xmlns:sodipodi="http://sodipodi.sourceforge.net/DTD/sodipodi-0.dtd"
   xmlns="http://www.w3.org/2000/svg"
   xmlns:svg="http://www.w3.org/2000/svg">
  <sodipodi:namedview
     id="namedview176685"
     pagecolor="#ffffff"
     bordercolor="#000000"
     borderopacity="0.25"
     inkscape:showpageshadow="2"
     inkscape:pageopacity="0.0"
     inkscape:pagecheckerboard="0"
     inkscape:deskcolor="#d1d1d1"
     inkscape:document-units="mm"
     showgrid="false"
     inkscape:zoom="0.76257015"
     inkscape:cx="-409.14269"
     inkscape:cy="31.472515"
     inkscape:window-width="1920"
     inkscape:window-height="1034"
     inkscape:window-x="0"
     inkscape:window-y="22"
     inkscape:window-maximized="1"
     inkscape:current-layer="layer1" />
  <defs
     id="defs176680" />
  <g
     inkscape:label="Layer 1"
     inkscape:groupmode="layer"
     id="layer1"
     transform="translate(-146.73972,-140.14743)">
    <path
       fill="currentColor"
       d="m 153.14313,142.55872 q -0.28013,0.12514 -0.60531,0.17005 0.34018,-0.20012 0.46524,-0.58533 -0.32518,0.1901 -0.67035,0.25515 -0.30517,-0.33018 -0.76542,-0.33018 -0.43523,0 -0.7429,0.30765 -0.30765,0.30768 -0.30765,0.7429 0,0.14515 0.0251,0.24015 -0.64533,-0.035 -1.21063,-0.32519 -0.56532,-0.29015 -0.96054,-0.7754 -0.14497,0.25011 -0.14497,0.53028 0,0.57031 0.45526,0.87547 -0.23515,-0.005 -0.50025,-0.13002 v 0.0106 q 0,0.37517 0.25012,0.66783 0.25013,0.29267 0.61532,0.36272 -0.14499,0.04 -0.25514,0.04 -0.0649,0 -0.19509,-0.0201 0.10499,0.31517 0.37268,0.52027 0.26764,0.2051 0.60782,0.2101 -0.58028,0.45026 -1.3057,0.45026 -0.13002,0 -0.25012,-0.014 0.74038,0.47024 1.61088,0.47024 0.56028,0 1.05055,-0.17758 0.49025,-0.17757 0.84044,-0.47524 0.35017,-0.29767 0.60282,-0.68537 0.25262,-0.38771 0.37522,-0.81045 0.12253,-0.42271 0.12253,-0.84293 0,-0.09 -0.005,-0.13507 0.31516,-0.22511 0.52526,-0.54528 z m 1.2807,-0.97052 v 4.80258 q 0,0.59532 -0.42272,1.01805 -0.42273,0.42271 -1.01805,0.42271 h -4.80256 q -0.59534,0 -1.01806,-0.42271 -0.42272,-0.42273 -0.42272,-1.01805 v -4.80258 q 0,-0.59531 0.42272,-1.01804 0.42272,-0.42273 1.01806,-0.42273 h 4.80256 q 0.59532,0 1.01805,0.42273 0.42272,0.42273 0.42272,1.01804 z"
       id="path48400"
       style="fill:#ffffff;stroke-width:0.00500265" />
  </g>
</svg>
